<svg xmlns="http://www.w3.org/2000/svg" width="170" height="117" viewBox="0 0 170 117">
    <g fill="none">
        <path fill="#F0F0F0" d="M65.902 8.565s41.329-16.388 62.973 2.622c21.645 19.01 70.324 83.498-11.925 100.95C34.702 129.592-10.14 96.57 1.95 68.3 14.036 40.03 43.767 17.414 65.901 8.565z"/>
        <path fill="#741FA2" d="M60.158 80.992l5.114 20.58c.974 4.052 4.789 6.726 8.929 6.401l20.78-1.782c1.786-.162 3.41-1.053 4.384-2.512L135 55.711l-19.076-13.774L96.686 28 61.05 75.968c-.893 1.458-1.3 3.322-.893 5.024zm19.157 8.021c2.597.891 4.058 3.646 3.247 6.32-.893 2.593-3.653 4.052-6.332 3.241-2.679-.81-4.059-3.646-3.247-6.32.893-2.674 3.653-4.132 6.332-3.24z"/>
        <g>
            <path fill="#FF5C6D" d="M68.087 57.354l-49.762 6.318c-6.841.902-13.031-4.02-13.927-10.831L.326 20.677c-.896-6.892 3.99-13.128 10.75-14.03L60.838.327C67.68-.574 73.87 4.348 74.765 11.16l4.072 32.164c.896 6.892-3.99 13.21-10.75 14.03z" transform="translate(16 24)"/>
            <g fill="#FFF">
                <g>
                    <path d="M16.614.738c-.081.083-.244.247-.325.41.081-.081.163-.245.325-.41zM16.207 1.149L16.207 1.149 16.289 1.149zM2.28 33.641c0-.082 0-.082.082-.164 0 .082-.082.164-.082.164z" transform="translate(16 24) translate(21.99 14.77) translate(8.144)"/>
                    <path d="M11.565 8.697c-.163.493-.081.165-.244.493.081.164-.326.574-.326.738 0 0-.082.164-.163.164 0 .082-.081.164-.081.329 0 .082 0 0 .081 0l-.081.246c-.082.082-.163.082-.082 0-.407.656-2.117 3.774-2.443 4.512.081-.082.163-.328.326-.328-.082.246-.163.246-.163.41-.163 0-.245.41-.408.493v.082l-.081.082c-.326.82-.081.164-.489.903-.163.41-.244.656-.325.902 0 0 .081-.082.081 0-.081 0-.081.328-.163.328-.081.082-.244.493-.081.41-.082 0-.245.329-.163.165-.082.082-.082.164-.163.246l.081-.164c-.163.328-.325.492-.325.82l.081-.082c-.081.246-.163.41-.326.41l.082-.246c-.163.328-.245.575-.408.903l.082-.082c-.082.41-.977 2.38-1.059 2.79l.163-.165-.081.329s-.163-.247-.082-.247c-.326.657-1.873 4.021-2.199 4.595-.163.246-.081 0-.163 0-.081.329 0 .164-.081.41-.082.083-.082 0 0-.081-.082.082-.082.164-.082.246.082-.164.163 0 .245-.082l-.163.328H2.28c0 .082.082.246-.162.574-.245.493-.49 1.067-.815 1.641 0 0 0-.164.082-.246 0 .082-.082.164-.163.246.081-.082-.082.246 0 .164-.082.41-.408.903-.489 1.313.081.082 1.547 1.641 1.629 1.641-.082.082-.082.246-.163.246.081 0 .163-.246.163-.328l-.082-.082c.082-.246.082 0 .163-.328.082 0 0 .246-.081.492.081-.164.244-.328.163-.41.081-.164.081.082.163-.164.081-.164.081-.41.163-.492.244-.41.244-.657.407-.985v.082c.081-.082.163-.41.326-.656-.082.082-.082.082-.082-.083.163-.246.244-.492.326-.656v-.246c.407-.985 2.199-4.76 2.606-5.662v.082c.652-1.476 2.118-4.43 2.85-5.907.163-.164.326-.493.49-.739-.082.082-.082.082-.082-.082.407-.738 0-.082.326-.82.407-.903 2.117-4.103 2.606-4.76.163-.41.488-.902.651-1.312v.082c.163-.41 1.548-2.79 1.792-3.282l-.081.082c.162-.41.244-.328.488-.656-.081 0 .082-.41.163-.493.082-.246.326-.738.489-1.066v.082c.081-.329.488-.82.57-.985.326-.41.814-1.067 1.14-1.723l.407-.328v-.082s-.244-.41-.651-.739c-.407-.328-.896-.656-1.303-.328v-.082l-.082.164c-.163.164-.163.328-.163.246l.163-.246c-.163.164-.081 0-.081-.082-.082.082-.082.164-.163.246 0 .082 0 0 .081 0-.081.082-.081.328-.244.41-.163.165-.081 0-.244.165-.815 1.23-1.63 2.379-2.362 3.692v-.082c-.245.41-.407.738-.57 1.066-.082.083-.082.083-.163.083l-.489.984c-.163.246-.244.492-.407.657.081-.329 0-.165 0-.165z" transform="translate(16 24) translate(21.99 14.77) translate(8.144)"/>
                </g>
                <g>
                    <path d="M11.402 8.533c-.081.082-.163.164-.163.329.082-.083.163-.165.163-.329zM13.927 9.026v-.164c.081.082 0 .082 0 .164z" transform="translate(16 24) translate(21.99 14.77) translate(0 3.282)"/>
                    <path d="M5.782 11.077l-.081.082c-.326-.082-.081-.164-.326-.246-.163.082-.407-.246-.57-.246 0 0-.081-.082-.081-.164-.082 0-.163-.082-.245-.082v.082c-.081 0-.081-.082-.163-.082-.08-.083 0-.083.082-.083-.244-.164-.733-.738-.977-1.476-.326-.739-.326-1.56-.326-1.806-.082.082 0 .247-.082.329-.081-.164 0-.247 0-.329.163-.082.082-.328.245-.41l-.082-.082.082-.082c.081-.656 0-.164.163-.738.081-.329.081-.493.244-.657 0 0-.081.082-.081 0 .08 0 .08-.246.162-.246 0-.082.245-.328.082-.246.081 0 .244-.246.163-.082.081-.082.163-.082.163-.164l-.082.082c.163-.246.326-.328.407-.493l-.081.083c.163-.165.244-.247.326-.165l-.163.165c.244-.165.407-.247.57-.41l-.082.081c.082-.164.57-.41.978-.574.488-.164.977-.246 1.14-.328l-.163-.082c.082 0 .163-.082.244-.082 0 0-.162.246-.162.164.244 0 1.14 0 1.954.41.815.328 1.466.985 1.548 1.149.081.164-.082.082-.082.082.163.164.163 0 .245.246 0 .082-.082 0-.082 0 .082.082.082.164.163.164-.081-.082.081-.082.081-.164.082.082.082.164.163.246h-.081c0 .082.244.082.326.328.244.41.407.903.407 1.395 0 0-.082-.082-.082-.164v.246c0-.082.082.164.082.082.163.328.081.82.081 1.067.082 0 .57.246 1.059.574.489.246.896.657.977.657 0 .164-.081.246-.081.328.081 0 .163-.328.163-.41l-.082-.082c.082-.329.082-.082.082-.41.081 0 0 .328 0 .574.081-.246.163-.493.081-.575.082-.246.082 0 .163-.246v-.656c.082-.575-.081-.82-.163-1.313V6.4c0-.164-.081-.492-.163-.82 0 .082 0 .164-.081 0-.082-.329-.163-.575-.244-.821l-.163-.246c-.163-.328-.408-.82-.815-1.313-.407-.492-.977-1.067-1.71-1.477C9.529.821 7.9.656 7.248.656h.082c-.977 0-2.443.247-3.746.985-1.304.738-2.2 2.051-2.525 2.954-.163.246-.326.656-.407.984.081-.164.081-.082.081 0-.244.903 0 .083-.163 1.067-.081.575-.163 1.97.326 3.2.407 1.313 1.303 2.298 1.629 2.708.407.328.977.738 1.466.984h-.082c.245.083 1.059.575 2.036.739.896.164 1.874.164 2.2.082h-.082c.57-.164.489 0 .896-.082-.082-.082.326-.246.488-.328.245-.082.815-.493 1.14-.739v.082c.326-.246.815-.656 1.06-.902.488-.41 1.14-1.149 1.384-1.97.163-.164.244-.328.326-.41v-.082s-.408-.328-.815-.574c-.488-.246-1.058-.328-1.384 0h-.082c0 .082 0 .082-.081.164-.082.164-.082.246-.082.246l.082-.246c-.082.164-.082 0-.082-.082 0 .082-.081.164-.081.164h.081c0 .082 0 .246-.081.328-.081.164-.081 0-.163.164-.57.903-1.547 1.477-2.525 1.805-.325.082-.57.165-.896.165-.081 0-.081-.083-.162-.083 0 0-.408.083-.815 0-.163 0-.407-.082-.57-.164.163-.738.081-.738.081-.738z" transform="translate(16 24) translate(21.99 14.77) translate(0 3.282)"/>
                </g>
                <g>
                    <path d="M4.48 11.323c0-.082-.164-.164-.245-.246l.244.246zM3.42 13.703c.082 0 .082.082.164.082-.082-.082-.082-.082-.163-.082z" transform="translate(16 24) translate(21.99 14.77) translate(21.175 12.308)"/>
                    <path d="M3.42 5.17c.082-.329.082-.083.245-.329-.081-.164.326-.328.326-.492 0 0 .081-.082.163 0 0-.082.081-.082.162-.164h-.08l.162-.164c.081 0 .081 0 .081.082.245-.165.896-.493 1.71-.657.815-.082 1.548 0 1.792.082-.081-.082-.244-.082-.244-.164.163 0 .244.082.326 0 0 .164.326.164.407.328l.082-.082.081.082c.652.246.163 0 .652.329.325.164.488.246.57.41 0 0-.082-.082 0-.082 0 .082.244.164.163.246.081.082.244.328.244.164 0 .082.163.246 0 .164.081.082.081.164.163.164l-.082-.082c.163.246.163.41.326.574v-.082c.082.165.163.329.082.41l-.082-.163c.082.246.163.41.326.656v-.082c.081.164.244.574.326 1.149.081.492 0 .984 0 1.148l.081-.164v.246l-.163-.164c-.081.246-.244 1.15-.814 1.805-.489.739-1.303 1.15-1.548 1.231-.163.082-.081-.082-.081-.082-.244.164-.082.082-.244.164-.082 0 0-.082 0-.082-.082.082-.163.082-.163.082.081 0 .081.082.163.082-.082 0-.163.082-.245.082v-.082c-.081 0-.081.164-.407.246-.489.083-.977.165-1.466.083 0 0 .081-.083.244-.083h-.244c.081.083-.163 0-.081.083-.326.082-.815-.165-1.06-.165 0 .082-.325.493-.732.903-.407.41-.815.738-.896.82-.163-.082-.244-.164-.244-.164 0 .082.244.165.407.247l.081-.082c.326.164.082.082.326.246 0 .082-.326 0-.57-.164.244.164.407.246.57.246.163.082-.081.082.163.164.163.082.489.082.651.164.49.164.815.082 1.304.164H6.27c.163.082.489 0 .815.082-.082 0-.163-.082 0-.082.407 0 .651-.082.895-.082l.245-.082c.326-.082.814-.246 1.466-.492.57-.329 1.303-.739 1.873-1.313 1.14-1.067 1.71-2.626 1.873-3.282v.082c.244-.903.407-2.462-.081-3.857-.408-1.394-1.466-2.625-2.2-3.2-.162-.246-.57-.492-.814-.656.163.082.082.082-.081.082-.896-.41-.082 0-.977-.41-.49-.164-1.874-.575-3.177-.41-1.303.082-2.524.738-2.932.984-.407.328-.977.739-1.221 1.149v-.082c-.163.246-.815.902-1.222 1.805-.407.82-.57 1.805-.57 2.133v-.082c0 .575-.082.493-.082.985.082-.082.163.41.245.574 0 .246.244.903.407 1.313H.652c.162.328.488.985.57 1.23.325.575.814 1.396 1.547 1.806.082.164.244.328.326.41h.081s.408-.246.733-.656c.326-.41.57-.985.326-1.313h.081c-.08 0-.08-.082-.162-.082-.082-.164-.245-.164-.163-.164l.163.164c-.163-.164 0-.082.081-.082l-.163-.164v.082c-.081-.082-.244-.082-.326-.164-.081-.164.082-.082-.081-.246-.733-.821-1.059-1.806-1.14-2.872v-.903c0-.082.081-.082.081-.082s0-.41.163-.738c.082-.164.163-.41.244-.493.326-.082.408-.164.408-.164z" transform="translate(16 24) translate(21.99 14.77) translate(21.175 12.308)"/>
                </g>
            </g>
        </g>
        <g fill="#B267D9">
            <g>
                <path d="M1.799 56.461c.082-.33.082-.992.164-1.57-.082.413-.164.909-.164 1.57zM56.505.413c-.163 0-.327.083-.49.083l.49-.083z" transform="translate(4 2) translate(108.759 4.96)"/>
                <path d="M15.292 29.843v-.083c1.144-.827.408-.165 1.39-.992.327-.413 1.799-1.157 2.126-1.488 0 0 .163-.083.245-.165.164-.083.246-.166.246-.083.163-.165.572-.33.899-.496.082-.083-.082 0-.245.083l.817-.496c.328-.166.41-.166.082 0 .49-.248 1.554-.827 2.862-1.075.654-.165 1.39-.248 2.045-.083.654.083 1.308.414 1.88.827 1.063.91 1.554 2.563 1.554 3.968.082 1.405-.163 2.563-.327 3.141.164-.33.245-1.074.327-1.322-.082.661-.163.992-.163 1.24-.164.248-.41 1.405-.736 1.736v.165l-.164.248c-.654 1.24-.818 1.24-.9 1.323l-.163.165c-.164.083-.327.33-.818.579-.49.248-.817.248-1.145.165-.327-.083-.572-.165-.736-.413.082.082.246.248 0 .082 0 0-.163-.165-.245-.33-.163-.166-.245-.414-.245-.496-.164-.248-.49-1.406-.409-.992 0-.166-.164-1.24-.082-.662-.082-.33-.082-.661-.082-.992v.496c-.081-1.24-.081-1.984-.081-2.81v-.579c0-.33.081-.496.081-.661 0 .248-.081.496-.081.826 0-.661.081-1.157.163-1.653s.164-.91.246-1.488l-.082.413c.082-.661.49-2.81 1.226-4.794.736-1.984 1.8-3.803 2.126-4.382l-.327.496c.164-.33.327-.661.573-.992-.082.083-.164.496-.246.662.328-.496.982-1.488 1.881-2.728.9-1.158 2.126-2.563 3.435-3.72 1.308-1.24 2.78-2.315 4.007-3.142 1.226-.826 2.29-1.405 2.78-1.653.818-.413.163 0 .163 0 .9-.496.41-.248 1.145-.661.246-.083 0 .082-.163.165.327-.165.654-.33.736-.33-.49.165-.327.082-.49.082l1.062-.496v.083c.245-.083.573-.331 1.636-.827 1.799-.744 3.761-1.405 5.642-1.984 0 0-.409.165-.818.248.246-.083.654-.165.9-.248-.49.083.817-.248.409-.165 1.39-.496 3.189-.827 4.415-1.158.082-.082 2.372-1.984 2.372-2.066.409-.083.818-.166.9-.166-.082 0-.9.083-1.31.166l-.08.082c-.982.166-.246 0-1.146.166-.081 0 .818-.248 1.554-.331-.654.083-1.39.165-1.635.33-.655.083.081-.082-.736.083-.573.166-1.227.331-1.881.414-1.554.33-2.29.578-3.68.992l.164-.083c-.491.083-1.39.413-2.29.661.245-.082.49-.082-.082.083-.981.33-1.635.579-2.371.827l-.655.33c-1.717.662-5.805 2.48-9.485 5.291-1.8 1.405-3.516 2.976-4.743 4.381-1.308 1.488-2.208 2.811-2.699 3.555l.082-.165c-1.554 2.314-3.598 6.282-4.334 10.664-.409 2.149-.409 4.381-.245 6.448.163 1.074.409 2.066.9 2.976.49.909 1.39 1.653 2.37 1.818.573.166 1.31.166 1.963-.082.655-.248 1.227-.579 1.636-.91-.49.331-.327.248 0-.082.572-.579.818-.91.981-1.075.164-.165.164-.165.164-.248 0-.083.081-.083.817-1.488.327-.827.818-2.232.982-4.05.081-.91.081-1.902-.082-2.894-.164-.992-.49-2.067-1.145-2.976-.654-.91-1.635-1.653-2.617-1.984-.981-.413-2.044-.413-2.944-.33-1.799.247-3.025.826-3.68 1.157l-2.207 1.24c-.736.413-1.472.909-2.126 1.405l.081-.083c-.654.496-2.943 2.067-4.906 4.051-1.063.992-1.963 2.067-2.698 2.893-.736.91-1.309 1.654-1.636 2.067l.164-.165c-.9 1.405-.818 1.157-1.636 2.314.164-.082-.572 1.158-.818 1.654-.245.33-.49.992-.817 1.653-.327.661-.655 1.405-.9 2.067v-.083c-.163.579-.572 1.323-.818 2.067-.245.744-.49 1.405-.654 1.818C1.145 48.608.41 51.42.245 53.981c-.081.496-.163 1.075-.245 1.654v.248s.327.661.654.909c.41.248.818.083.981-1.488v.083-.662c.082-.744.082-1.074.082-1.074 0 .33-.082.661-.082.992.082-.744 0-.248.082.082 0-.33.082-.578.082-.826 0-.166 0 .082-.082.248 0-.414.082-.992.164-1.488.082-.744.082-.083.245-.91.409-2.314 1.063-4.629 1.963-6.778.9-2.15 1.962-4.299 3.189-6.366.082-.082 0 0-.082.166.409-.579.736-1.158 1.145-1.736.409-.579.818-1.075 1.145-1.571l.409-.413c-.082 0 .245-.331.654-.827.409-.496 1.063-1.24 1.717-1.819l.981-.992c.327-.248.654-.578.9-.826.818-.414 1.145-.744 1.145-.744z" transform="translate(4 2) translate(108.759 4.96)"/>
            </g>
            <g>
                <path d="M2.862 26.536v-.33.33zM7.932.827s0 .082-.082.082c0 0 0-.082.082-.082z" transform="translate(4 2) translate(103.852 18.187)"/>
                <path d="M2.944 19.84c0-.33 0-.083.082-.413-.082-.166.081-.496 0-.579 0 0 0-.165.081-.083-.081-.082 0-.165 0-.248l-.081.083v-.165c0-.083.081-.083.081 0 .082-.496.655-3.059.9-3.555-.082.083-.082.248-.164.248 0-.165.082-.248.082-.248.082 0 .082-.33.245-.413v-.083l.082-.083c.164-.661 0-.165.246-.744.081-.33.081-.496.163-.661 0 0-.082.083-.082 0 .082 0 .082-.248.082-.248 0-.083.082-.33 0-.248.082 0 .164-.248.164-.083 0-.082.081-.165.081-.248l-.081.083c.081-.248.163-.413.245-.579h-.164c.082-.165.082-.33.164-.33l-.082.165c.082-.248.164-.413.245-.661v.082c.082-.33.573-1.818.655-2.066l-.082.082.082-.248.081.166c.164-.496 1.309-2.976 1.554-3.39.082-.165.082 0 .082 0 .082-.248 0-.082.082-.33v.082c0-.082.081-.165.081-.165-.081.083-.081 0-.163 0l.163-.248c0-.083 0-.165.082-.413.246-.414.41-.827.654-1.158 0 0 0 .083-.081.166 0-.083.081-.166.081-.166-.081.083.082-.165 0-.082.082-.331.328-.662.41-.91C8.831 2.067 7.931.91 7.767.827 7.85.744 7.85.66 7.85.66s-.163.166-.163.248v.083c-.082.165-.082 0-.164.248-.082 0 0-.165.082-.33-.082.165-.164.247-.164.33-.081.083-.081-.083-.163.083-.082.082-.082.248-.164.413-.245.248-.163.496-.409.744-.081.083-.163.33-.245.496 0-.083.082-.083 0 0-.163.165-.163.33-.327.496v.165c-.409.662-1.717 3.555-2.044 4.299-.491 1.157-1.472 3.472-1.718 4.712-.081.165-.163.413-.245.661.082-.082.082-.082.082 0-.164.579 0 .083-.164.662-.245.661-.9 3.389-.98 4.05 0 .331-.083.744-.083 1.158-.081.33-.327 2.48-.245 2.893v-.083c0 .414 0 .331-.082.662.082 0 .082.248.082.413 0 .165.082.579.082.91.082.247.082.743.082.909 0 .413 0 1.074.163 1.653l-.082.413v.083s.327.083.736.083c.41 0 .818-.166.9-.496v-.166c0-.165-.082-.248 0-.248v.248c0-.165 0-.082.082 0v-.165.083c0-.083-.082-.166-.082-.331s.082 0 .082-.248c-.082-.992-.082-2.067-.082-3.059v-.909c0-.083.082-.083.082-.083.081-.248.163-1.818.245-1.901z" transform="translate(4 2) translate(103.852 18.187)"/>
            </g>
            <g>
                <path d="M3.107.992C3.026.909 2.944.909 2.78.909c.082.083.164.083.327.083z" transform="translate(4 2) translate(114.483 7.44)"/>
                <path d="M.818 4.63c.163.165 0 .082.082.247.163 0 .163.331.245.331 0 0 .082.083 0 .083.082 0 .082.082.082.082v-.082l.081.082v.083c.082.165.491.579 1.063.827.491.248 1.145.248 1.309.248-.082 0-.164 0-.246-.083h.164c.082.083.245 0 .327.083v-.083h.082c.409-.165.082 0 .49-.165.246-.083.328-.166.41-.248 0 0-.082 0 0 0 0 .082.163-.083.163-.083.082 0 .245-.083.082-.165.081 0 .163-.083.081 0 .082 0 .082-.083.082-.083h-.082c.164-.083.246-.165.328-.248h-.082c.082-.083.163-.165.245-.083l-.082.083.327-.33v.082c.082-.083.246-.33.328-.661.081-.248.163-.579.163-.662l.082.248v-.165l.163.083c.082-.166.164-.662.082-1.158-.082-.496-.245-.909-.327-1.074 0-.083.082-.083.082-.083-.082-.083-.082 0-.164-.165h.082c0-.083 0-.083-.082-.083 0 .083-.081.083-.081.083l-.082-.166s-.164 0-.164-.165C5.97.992 5.724.827 5.561.661h.081L5.561.58c0 .082-.082-.083-.082 0-.164-.083-.327-.248-.49-.331 0 0-.328.33-.573.579-.246.33-.41.661-.49.661h-.083s0 .083.082.083v-.083c.082 0 0 0 .082.083h-.082s.082.082.082 0v.082h.082c.081.083.163 0 .163.166l.082.082s0-.082 0 0c0 .083.082.083.082.166h.082c.081.082.245.33.327.661.081.248.081.579.081.661 0 .166-.081.331-.245.579-.163.165-.409.33-.572.496h-.164v.083c-.163 0 0 0-.163.082-.082 0-.328.083-.573-.082-.163-.083-.327-.248-.409-.331-.081 0-.163-.165-.245-.248 0 0-.082-.248-.164-.413V3.14c0-.082.082-.082.082-.165-.082 0-.082-.083-.082-.165v-.248c0-.083.082-.166.082-.166.082-.082.164-.082.246-.082 0 0 0 .082.081.082 0 0 0-.33.082-.661.082-.33.164-.827-.163-.992h-.082c-.164 0-.164.083-.164 0h.164c-.164 0-.082 0 0-.083h-.164.082c-.082 0-.164.083-.245.083-.164.083 0-.083-.164 0-.818.33-1.308 1.075-1.472 1.819 0 .248-.082.413-.082.661 0 .083-.081.083-.081.083s0 .248.081.578l.246.744z" transform="translate(4 2) translate(114.483 7.44)"/>
            </g>
            <path d="M2.29 9.341c0-.165 0-.33.163-.578-.163.165-.245.33-.163.578zM42.032 21.576c-.082-.083-.164-.165-.246-.33l.246.33z" transform="translate(4 2)"/>
            <path d="M20.362 6.117h.081c.573.827.082.248.655 1.075.327.248.735 1.405.899 1.736l.164.413c.081.083.163.496.327.744.081.083 0-.082 0-.165.081.248.163.413.245.661.082.248.082.331 0 .083.245.827 1.145 3.555.654 6.035-.245 1.157-.9 2.314-1.554 3.141s-1.308 1.488-1.717 1.819c.246-.166.654-.579.818-.662-.327.414-.572.496-.736.662-.245.082-.9.744-1.227.826l-.081.166c-.082 0-.164.082-.246.082-.9.579-1.063.579-1.144.662-.082 0-.164.082-1.064.33-1.063.248-1.553.331-2.044.248.082 0 .327.083 0 .083 0 0-.163-.083-.327-.083-.164-.082-.327-.082-.409-.165-.245-.083-.818-.496-.654-.33 0-.083-.164-.249-.245-.331-.082-.083-.082-.166 0 0-.164-.166-.246-.331-.41-.496.083.082.083.165.164.248-.49-.662-.49-1.158-.654-1.654v.331c-.082-.496-.082-.91 0-1.157v.496c0-.827.082-1.323.327-2.067 0 .083-.082.165-.082.248.082-.248.246-.661.573-1.24.327-.496.818-1.157 1.39-1.653 1.145-1.075 2.617-1.819 3.026-2.067l-.41.165.737-.413c-.082 0-.327.33-.41.33.41-.165 1.227-.495 2.29-.826 1.064-.33 2.454-.496 3.844-.496 1.39 0 2.698.165 3.843.413 1.063.248 1.963.579 2.29.744.572.248.082.083.082.083.736.248.327.083.98.33.164.083-.08 0-.163 0 .246.083.491.249.573.249-.327-.166-.164-.166-.327-.248l.817.413h-.081c.163.083.49.083 1.226.579 1.309.744 2.617 1.653 3.762 2.645 0 0-.245-.165-.573-.33.164.165.41.33.491.413-.245-.248.49.413.327.165.9.661 1.881 1.653 2.617 2.315.082 0 2.535.496 2.617.496.163.248.409.496.49.578 0-.082-.409-.578-.654-.826h-.082c-.49-.579-.081-.166-.572-.744 0-.083.49.413.9.909-.328-.413-.655-.827-.9-.992-.327-.413.082 0-.327-.496-.327-.33-.736-.661-1.063-1.075-.818-.909-1.39-1.24-2.208-1.984l.082.083c-.327-.248-.9-.744-1.472-1.157.163.165.245.248-.082 0-.654-.496-1.145-.827-1.635-1.158l-.491-.248c-1.227-.744-4.498-2.48-8.096-2.81-1.799-.248-3.598-.166-5.151.082-1.554.248-2.78.662-3.435.91l.082-.083c-1.063.413-2.372 1.075-3.598 2.067-1.227.992-2.535 2.314-3.19 4.133-.654 1.819-.49 3.968.737 5.456.572.744 1.39 1.24 2.126 1.488s1.553.33 2.126.248c.818 0 1.799-.248 2.535-.496-.409.165-.245.083 0-.083 1.063-.413 1.063-.496 1.145-.496 0 0 .081 0 1.063-.661.572-.413 1.472-1.075 2.371-2.067.9-.992 1.88-2.314 2.453-3.968.573-1.57.573-3.306.327-4.629-.163-1.323-.49-2.315-.654-2.893-.409-1.158-.9-2.646-1.553-3.72l.081.082c-.327-.578-1.39-2.562-3.352-3.968-.982-.661-2.045-1.157-2.944-1.488-.9-.33-1.636-.413-2.045-.496h.246c-1.39-.165-1.145-.165-2.208-.248.163.083-1.063.166-1.472.248-.654.083-2.126.496-3.107.992v-.082c-.41.248-.982.496-1.554.826-.573.331-.981.662-1.309.91-.327.248-.654.496-.98.826-.328.331-.655.662-1.064.992-.654.662-1.554 1.24-2.126 2.232-.327.414-.572.91-.654 1.488v.248s.082.166.245.331c.164.165.41.33.654.33.246 0 .41-.082.491-.247.082-.166.164-.414.327-.744 0-.083.082-.166.082-.248.245-.331.409-.579.327-.496-.164.165-.245.33-.327.496.245-.331.082-.083 0 .082.082-.165.163-.33.327-.413l-.082.083c.164-.248.327-.496.654-.744.41-.414.082 0 .573-.414.327-.33.736-.661 1.063-.992.327-.33.654-.578.981-.909.654-.579 1.39-1.075 2.126-1.488 1.554-.827 3.19-1.24 4.907-1.24h-.082c1.063 0 1.962.165 2.862.33.245.083.327.166.409.166-.082-.083 1.226.33 2.29 1.075.572.33 1.063.826 1.39 1.157.572.579.736.91.736.91z" transform="translate(4 2)"/>
            <g>
                <path d="M.818 1.57c0 .083.082.083.163.166 0-.083-.081-.165-.163-.165zM11.367 11.573c-.082 0-.082 0 0 0-.082 0-.082 0 0 0z" transform="translate(4 2) translate(32.71)"/>
                <path d="M3.598 3.885c.164.083 0 .083.164.166.081 0 .163.165.245.165 0 0 .082.083 0 .083.082 0 .082.082.082.082V4.3l.081.082v.083c.246.248 1.063 1.157 1.309 1.488 0-.083-.082-.083-.082-.165.082 0 .082.082.082.082-.082.083.082.166.082.248h.081V6.2c.246.248.082 0 .246.33.081.166.245.166.245.249 0 0 0-.083 0 0 0 0 .082.082.082.165 0 0 .163.165.163.083 0 0 .082.165 0 .082l.082.083v-.083c.082.083.082.248.245.248v-.082c.082.082.082.165.082.165l-.082-.083.246.248c.163.083.654.744.817.91v-.083l.082.083h-.163c.163.248.9 1.488.981 1.736 0 .082-.082.082-.082.082.082.083.082 0 .082.083h-.082s0 .083.082.083c0-.083.082-.083.082-.083l.082.165s.163 0 .163.166c.082.248.164.413.245.661 0 0-.081 0-.081-.083v.083c0-.083.081.083.081 0 .164.083.164.33.246.496.081 0 1.553-.248 1.635-.248v-.083h-.082c-.081-.082 0 0 0-.165l.164.165c0-.082 0-.165-.082-.165 0-.083.082 0 0-.083 0-.082-.082-.165-.082-.248 0-.165-.163-.248-.163-.413 0-.083-.082-.165-.082-.248 0 0 0 .083-.082 0 0-.165-.081-.165-.081-.33V9.92c-.164-.413-1.064-1.984-1.309-2.315-.409-.578-1.145-1.736-1.635-2.232 0-.082-.164-.248-.164-.33 0 .082 0 .082-.082 0l-.245-.248C6.87 4.38 5.97 3.389 5.642 3.059c-.163-.083-.327-.248-.49-.414-.164-.165-.982-.909-1.227-1.074-.163-.083-.082-.166-.245-.248 0 .082-.164 0-.246 0-.081-.083-.327-.166-.408-.248-.164-.083-.327-.248-.41-.248C2.454.66 2.209.413 1.882.33L1.799.165s-.981.992-.818 1.488h.082c.082.083.164.083.082.083L.98 1.653c.082.083 0 .083 0 .083l.082.083c.082 0 .164 0 .164.082.081.083 0 .083.081.083.41.33.9.661 1.309 1.075.163.082.245.165.409.248v.082c-.082-.082.572.496.572.496z" transform="translate(4 2) translate(32.71)"/>
            </g>
        </g>
    </g>
</svg>
