<svg xmlns="http://www.w3.org/2000/svg" width="152" height="135" viewBox="0 0 152 135">
    <g fill="none">
        <path fill="#F0F0F0" d="M98.179 123.47s-36.07 19.102-57.2 3.217c-21.13-15.885-71.941-89.075.983-112.855S159.506 33.811 150.955 61.49c-8.452 27.58-33.513 51.554-52.776 61.982z"/>
        <g transform="translate(0 51)">
            <path fill="#00CDAD" d="M2.735 83.613l71.693-29.196L30.279 10.43.781 81.583c-.586 1.257.684 2.514 1.954 2.03z"/>
            <ellipse cx="53.622" cy="31.282" fill="#741FA2" rx="10.107" ry="31.582" transform="rotate(-45 53.622 31.282)"/>
            <g fill="#72E8BE">
                <path d="M1.516.536c-.098.097-.098.29-.098.483.098-.096.098-.29.098-.483zM10.21 31.279s-.099 0-.099-.097l.098.097z" transform="translate(10.498 47.984)"/>
                <path d="M.54 9.527c.097.386 0 .096 0 .483.195.193 0 .677 0 .774 0 0 0 .193-.098.193.097.097 0 .193 0 .29l.097-.097v.29c0 .097-.097.097-.097 0-.098.677-.196 4.157-.098 5.027.098-.096 0-.386.098-.483.097.193 0 .29 0 .387-.196.096 0 .483-.196.58l.098.096-.098.097c.098.87.098.193.098 1.064 0 .483.195.676.195.966 0 0 0-.193.098 0-.098 0 .098.29 0 .387 0 .097 0 .483.098.387 0 .096 0 .386-.098.193v.29-.193c.098.386 0 .58.098.87v-.194c0 .194.097.387 0 .58l-.098-.193c.098.387.098.677.195.967v-.097c.098.387.782 2.61 1.075 2.9v-.193l.195.29-.293-.097c.098.387.488 1.45.977 2.417.488 1.064 1.172 1.934 1.367 2.224.098.29-.097.097-.097.097.195.29.195.096.293.29 0 .096-.098 0-.098 0 .098.096.098.193.195.193-.097-.193.098-.193.098-.29.098.097.098.193.195.29h-.097c.097.097.293.097.488.387.39.483.88.966 1.367 1.353 0 0-.097 0-.293-.097.098.097.196.097.196.194-.098-.194.195.096.195 0 .489.193.88.676 1.27.773.098-.097.586-.483 1.074-.87.489-.387.88-.87.977-.967.098.097.195.097.195.097s-.195-.193-.293-.193l-.097.096c-.196-.096 0-.096-.196-.193 0-.097.196 0 .391.097-.098-.097-.293-.194-.39-.194-.098-.096.097-.096-.098-.193-.098 0-.293-.097-.391-.193-.293-.29-.488-.29-.781-.484-.098-.096-.293-.193-.391-.386 0 .096 0 .096-.098 0-.195-.194-.293-.29-.39-.484l-.196-.097c-.293-.29-.977-1.16-1.563-2.126-.586-.967-.976-2.03-1.172-2.514-.293-.677-.586-1.74-.781-2.804-.195-1.063-.293-2.223-.39-2.996.097-.29 0-.58 0-.87 0 .096-.098.096-.098 0 0-.774-.098-.097-.098-.87-.098-.87 0-4.351.098-5.221-.098-.483 0-.967 0-1.45 0-.484.195-3.094.195-3.577v.096c0-.483.098-.386.098-.773-.098 0-.196-.387-.196-.483 0-.194-.097-.774-.097-1.16h.097V3.05c.098-.484.293-1.354.196-2.03l.195-.387V.536S1.516-.431.93.536H.832v.193c-.097.194 0 .29 0 .29V.73c0 .194-.097.097-.097 0 0 .097 0 .194-.098.29V.923c0 .096.098.29 0 .386 0 .194-.098 0-.098.29C.344 2.953.15 4.306.15 5.756V5.66v1.16c0 .097-.098.097-.098.193V8.85c.488.58.488.677.488.677z" transform="translate(10.498 47.984)"/>
            </g>
            <g fill="#72E8BE">
                <path d="M1.771.193c-.097.194-.195.484-.195.677.098-.193.195-.387.195-.677zM14.567 49.788s-.098-.097-.196-.097c.098 0 .196 0 .196.097z" transform="translate(20.4 23.095)"/>
                <path d="M.013 14.211c.098.677 0 .194 0 .774.195.193 0 .966.098 1.256 0 0 0 .29-.098.29.098.097 0 .29.098.484 0 .097 0-.097.097-.097v.387c0 .193-.097.193-.097 0 0 .58.097 2.223.195 3.867.098 1.643.293 3.287.488 3.867 0-.193-.097-.484 0-.677.098.29 0 .484.098.58-.098.097.098.677-.098.967l.098.097v.193c.293 1.353.098.29.293 1.547.098.677.39 1.063.39 1.45 0-.097 0-.193.099 0-.098 0 .195.483.097.58 0 .193.196.773.196.58 0 .097.097.677-.098.29 0 .193.098.387.098.483v-.193c.195.58.195.967.39 1.257v-.194c.098.387.196.677.098.774l-.098-.387c.196.58.196.967.391 1.354v-.194c.098.29.488 1.257.781 2.127.391.967.684 1.837.88 2.127v-.29l.195.483c0-.096-.293-.096-.293-.193.195.483.781 2.03 1.367 3.577.684 1.547 1.368 3.094 1.563 3.48.195.387-.098.097-.098.097.293.387.196.193.391.483 0 .097-.098 0-.098 0 .098.194.196.29.196.29-.098-.193.097-.193.097-.29l.293.484h-.097c.097.096.293.193.586.676.488.774 1.074 1.547 1.66 2.32 0 0-.195-.096-.293-.29.098.097.196.29.293.387-.097-.193.293.29.196.097.586.387 1.074 1.16 1.562 1.547.098 0 .782-.29 1.368-.484.586-.29 1.27-.58 1.27-.676l.293.29c0-.097-.196-.29-.391-.387l-.098.097c-.293-.194 0-.097-.293-.29 0-.097.293.193.586.29-.195-.194-.39-.387-.488-.387-.195-.193.098 0-.098-.29-.195-.097-.39-.29-.586-.483-.39-.484-.684-.58-.977-1.064h.098c-.098-.193-.39-.483-.586-.773.098.096.098.193-.098 0-.195-.387-.39-.58-.488-.87l-.195-.194c-.391-.58-1.368-2.223-2.15-3.963-.78-1.74-1.464-3.577-1.757-4.254v.097c-.391-1.16-.977-2.804-1.465-4.544-.196-.87-.489-1.74-.684-2.61-.196-.774-.39-1.547-.489-2.127 0-.387-.097-.87-.195-1.257 0 .193-.098.193-.098 0-.195-1.16-.097-.097-.293-1.257-.097-.676-.39-2.32-.488-4.06-.195-1.644-.195-3.287-.195-3.964-.098-.677-.098-1.547-.196-2.127v-2.61c.098-1.16.098-2.32.196-2.803v.096c0-.677.097-.58.195-1.16-.098.097-.098-.58-.098-.773 0-.387 0-1.16.098-1.74h.098c0-.484.097-1.354.195-1.74.195-.774.488-1.934.586-2.998L4.8.967V.87S4.311.483 3.725.29C3.139.097 2.455 0 2.065.677h-.098v.29c-.098.29-.098.483-.098.483l.098-.483c-.098.386-.098.096-.098 0 0 .096-.098.29-.098.386 0 .097 0 0 .098-.096 0 .193 0 .483-.098.677-.097.386-.097 0-.195.386-.39 2.127-.782 4.254-.977 6.477v-.096c0 .676-.098 1.257-.098 1.837 0 .193-.097.193-.097.29v1.643c-.39.87-.39 1.74-.39 1.74z" transform="translate(20.4 23.095)"/>
            </g>
        </g>
        <g>
            <g>
                <g fill="#B267D9">
                    <path d="M2.466 12.549c.198-.196.395-.49.691-.784-.197.196-.395.49-.69.784zM47.258 2.059c-.099 0-.197.098-.296.098 0 0 .197-.098.296-.098z" transform="translate(42) translate(39.575 62.745)"/>
                    <path d="M20.521 3.235c.987-.196.296 0 1.184-.098.296-.196 1.48-.098 1.776-.098 0 0 .395 0 .395.098.098-.098.394 0 .69 0 .099 0-.098 0-.098-.098h.592c.197 0 .296.098 0 .098.789.098 3.157.392 5.031 1.569.987.588 1.875 1.274 2.467 1.96.592.687.986 1.373 1.184 1.667-.1-.196-.296-.588-.395-.784.296.294.296.588.493.686 0 .098.099.294.198.49.098.197.197.49.197.687l.099.098v.196c.295.882.197.98.295 1.078v.883c0 .882-.098 1.372-.197 1.862 0-.098.099-.294.099 0-.099 0-.197.589-.296.687-.099.196-.493.882-.296.686-.099.098-.493.686-.296.294-.099.196-.296.392-.395.49l.198-.196c-.494.588-.79.883-1.184 1.177.098 0 .197-.098.197-.098-.395.294-.69.49-.888.49.099-.098.296-.098.395-.294-.592.392-1.086.588-1.579.686h.197c-.296.098-1.677.392-2.367-.294-.395-.294-.592-.784-.691-1.177-.099-.49-.099-.882-.099-1.078 0 .098-.098.196-.098.294v-.588c0 .098.098.294.098.392 0-.294.099-.98.592-1.667.494-.784 1.382-1.47 2.368-2.157 2.072-1.274 4.44-2.352 5.13-2.647.592-.196.1 0 .1.098.69-.294.295-.196.788-.49.198-.098 0 .098-.098.098.296-.098.493-.196.493-.196-.296.098-.197 0-.395 0l.79-.294v.098c.197-.098.394-.294 1.085-.588 1.282-.49 2.565-1.079 3.848-1.47 0 0-.296.097-.494.293.198-.098.395-.196.592-.196-.296.098.494-.196.296-.196.888-.392 2.17-.686 2.96-1.078 0-.098 1.283-2.255 1.283-2.353.296-.098.493-.098.592-.196-.1 0-.592.098-.888.196v.098c-.592.196-.198 0-.79.196l.987-.392c-.493.098-.888.196-1.085.294-.395.098 0-.098-.494.098-.394.098-.789.294-1.282.392-1.085.294-1.579.588-2.467.883l.099-.099c-.296.099-.987.393-1.579.589.198-.098.296-.098 0 .098-.69.196-1.085.392-1.677.588l-.493.196c-1.184.49-4.045 1.667-6.709 3.137-1.381.687-2.762 1.569-3.848 2.55-.493.49-.986 1.078-1.282 1.666-.296.588-.493 1.078-.592 1.47v-.097c-.099.588-.197 1.274-.197 1.96.098.687.296 1.569.887 2.255.592.785 1.48 1.275 2.368 1.47.888.197 1.875.197 2.664-.097 1.677-.392 3.157-1.569 4.045-2.843.888-1.275 1.381-2.55 1.579-3.628.197-.686.197-1.568.197-2.353 0 .392-.099.294-.099 0-.098-1.078-.197-1.078-.197-1.176 0 0 0-.098-.395-1.079-.197-.588-.69-1.568-1.38-2.549-.79-.98-1.777-2.058-3.06-2.843-1.183-.784-2.466-1.372-3.65-1.764-1.184-.393-2.072-.49-2.663-.589-1.086-.098-2.566-.098-3.65 0h.098c-.592 0-2.565.196-4.44.589-1.874.392-3.749.98-4.44 1.274h.198c-1.086.49-.987.294-1.875.588.099 0-.79.49-1.085.687-.493.196-1.677.882-2.467 1.372v-.098c-.69.392-1.973 1.275-2.367 1.569-1.086.784-2.664 1.96-3.75 3.431-.295.294-.591.49-.789.784l-.098.098s0 .589.296.98c.296.393.789.589 1.578-.097v.098l.296-.294c.395-.392.493-.589.493-.49l-.493.49c.296-.392.099-.098 0 .098.099-.196.296-.294.395-.392.098-.098-.099 0-.099.098.197-.196.395-.49.592-.785.395-.392.099 0 .493-.392 2.368-2.157 5.032-3.725 8.09-5 .1 0 0 0-.098.098.888-.392 1.776-.686 2.565-.98.197-.098.296 0 .395 0-.1 0 1.085-.392 2.367-.687.592-.098 1.283-.294 1.678-.392.888-.098 1.282-.098 1.282-.098z" transform="translate(42) translate(39.575 62.745)"/>
                </g>
                <g fill="#20D3B7">
                    <path d="M.69 4.51h.395c-.197-.098-.296-.098-.394 0zM1.085 4.412L1.085 4.412.987 4.412zM26.54.686h-.1.1zM7.3 3.53c.297-.099.1 0 .395-.099.1-.098.494 0 .592-.098h.1c0-.098.098 0 .196-.098h-.098.197c.099 0 .099.098 0 .098.592 0 3.058-.196 3.65-.294-.098 0-.296 0-.296-.098.1-.098.198 0 .296-.098.1.098.296 0 .494.098v-.098h.098c.691-.098.198 0 .691-.098.296 0 .493-.098.69-.098 0 0-.098 0 0-.098 0 .098.198-.098.297 0 .098 0 .394 0 .296-.098.098 0 .296 0 .197.098h.197-.098.592-.1c.198 0 .297 0 .396.098h-.198c.296 0 .493 0 .69-.098h-.098c.296-.098 1.875-.196 2.17-.294l-.098-.098.197-.098-.098.196c.493 0 3.157 0 3.65.098.197 0 0 .098 0 .098.197 0 .099-.098.296 0 .099 0 0 0 0 .098h.197c-.098 0-.098-.098-.098-.196h.296c.098 0 .197-.098.394-.098.395 0 .888.098 1.283.098 0 0-.099 0-.197.098h.197c-.099-.098.197 0 .099 0 .296-.098.69 0 .986 0 0-.098.79-1.765.79-1.863h.197S26.539.49 26.44.49v.098c-.198 0 0 0-.296-.098 0-.098.197-.098.394 0-.098 0-.296-.098-.394 0-.099 0 0-.098-.099-.098h-.395c-.295-.098-.493 0-.789 0-.098 0-.296 0-.493-.098.099 0 .099.098 0 .098-.197 0-.395 0-.493-.098h-.198C22.89.196 19.831.196 19.041.196c-1.184 0-3.65.098-4.834.196h-.69c.098 0 .098.098 0 .098-.593 0 0 0-.691.098-.69.098-3.355.294-4.045.294-.296.098-.79.098-1.086.196-.394.098-2.367.295-2.762.393h.099c-.395.098-.296 0-.592 0 .098.098-.198.196-.395.196s-.592.196-.888.294v-.098c-.197.098-.69.196-.888.196-.394 0-.986.098-1.578.294l-.395-.098S.099 4.02.888 4.215h.099c.197 0 .197-.097.197 0H.987c.197 0 .098 0 0 .099h.098c.099 0 .198-.098.296-.098.198 0 0 .098.198 0 1.085-.196 2.071-.294 3.058-.49.296-.099.592-.099.888-.197.099 0 .099 0 .099.098S7.3 3.53 7.3 3.53z" transform="translate(42) translate(39.575 62.745) translate(0 22.549)"/>
                </g>
                <g fill="#FF844F">
                    <path d="M5.92.882c-.1-.098-.198-.098-.296-.098.098 0 .197.098.296.098zM5.624.686L5.624.686 5.624.784zM.888 3.333c0 .294 0 .098-.099.392.099.099-.098.49 0 .589 0 0 0 .098-.098.098.098 0 0 .098 0 .196v.196c0 .098-.099.098-.099 0 0 .294.099.98.395 1.569.296.686.888 1.176 1.085 1.372 0-.098-.197-.196-.197-.294.098.098.197.098.197.196s.197.196.296.392h.098v.098c.592.196.1.098.691.294.296.098.493 0 .69.098 0 0-.098-.098 0-.098 0 .098.198 0 .297 0 .098 0 .296 0 .296-.098 0 0 .296 0 .098.098h.198-.099c.296 0 .395 0 .592-.098H5.13c.198 0 .296-.098.395 0l-.197.098c.296-.098.394-.098.592-.196h-.1c.1-.098.494-.294.79-.588.296-.294.592-.588.592-.686h-.099l.1-.196.098.196c.197-.196.592-.785.69-1.47.1-.687-.098-1.373-.098-1.57 0-.196.098-.097.098-.097-.098-.197-.098-.099-.098-.197h.098c0-.098 0-.098-.098-.098 0 .098-.099.098-.099.098 0-.098-.099-.098-.099-.196 0 0-.197-.098-.197-.294-.197-.294-.395-.588-.69-.882 0 0 .098 0 .197.098l-.099-.098c0 .098-.098-.098-.098 0-.296-.098-.494-.392-.79-.392 0 0-.394.392-.592.784-.296.392-.394.784-.493.882h-.099s0 .098.099.098V3.53c.099 0 0 0 .099.098 0 .098-.099 0-.099 0s.099.098.099 0v.098h.098c0 .099.198 0 .198.099l.098.098s0-.098 0 0 .099.098.099.196h.099c.098.098.197.49.296.784 0 .294-.1.588-.198.686-.098.196-.394.392-.69.588-.296.099-.691.197-.888.197-.099-.098-.099-.098-.198-.098v.098l-.197-.098c-.099 0-.395-.295-.592-.589C2.96 5.392 2.96 5 2.96 4.902c-.099-.098 0-.294-.099-.392 0-.098 0-.294.197-.49.1-.196.296-.393.395-.393.099-.098.099-.098.197-.098-.098-.098 0-.196.1-.196l.295-.294c.099-.098.296-.098.395-.098.197 0 .493.098.69 0 0 .098.099.098.099.196 0 0 .197-.392.296-.784.197-.392.296-.882.099-1.177H5.328h.197c-.099 0 0 0 0-.098-.099 0-.099 0-.197-.098h-.296c-.198 0 0-.098-.198-.098-.986-.098-1.874.196-2.663.785l-.592.588h-.1l-.394.588c-.098.196-.197.392-.197.49 0-.098 0 0 0 0z" transform="translate(42) translate(39.575 62.745) translate(51.303 3.922)"/>
                </g>
            </g>
            <g fill="#FF7180">
                <path d="M14.898 2.255c.296.098.888.098 1.38.294-.295-.098-.788-.196-1.38-.294zM11.247 59.706c0-.098.099-.294.198-.392-.1.098-.1.196-.198.392z" transform="translate(42) translate(5.045)"/>
                <path d="M22.494 22.353c-.888.98-.296.294-1.184 1.078-.197.393-1.48 1.177-1.874 1.471 0 0-.493.294-.493.196-.099.098-.494.294-.79.49-.098.098.099 0 .198-.098-.198.196-.494.294-.69.392-.297.098-.396.098-.1 0-.493.196-1.48.589-2.762.98-1.283.295-2.861.49-4.44.49-1.578 0-3.058-.391-4.242-.98-1.085-.49-1.776-1.176-2.072-1.568.099.196.592.686.69.882-.493-.294-.591-.588-.789-.686-.098-.196-.69-.98-.69-1.373l-.099-.098v-.294c-.296-1.078-.197-1.274-.197-1.372v-.196c0-.098 0-.392.197-.883.197-.49.395-.784.592-1.078.197-.294.493-.392.69-.588-.098 0-.295.098-.098 0 0 0 .69-.294.888-.294.296-.099 1.283-.197.987-.197.197 0 1.085.098.592.098.295 0 .591.099.887.099-.098 0-.296-.099-.394-.099 1.085.197 1.677.393 2.368.687-.099-.098-.198-.098-.395-.196.592.196 1.085.49 1.283.686l-.592-.294c.986.49 1.48.98 2.269 1.568l-.296-.196c.493.393 1.973 1.667 3.058 3.236 1.086 1.568 1.875 3.431 2.072 3.921l-.099-.49c.1.294.296.588.395.882 0-.098-.296-.392-.395-.49.395.98 1.382 4.216 1.184 7.55 0 3.333-.986 6.568-1.282 7.45-.296.785-.099.098-.099.098-.296.98-.099.392-.296 1.177-.099.196 0-.098 0-.196-.099.392-.296.686-.197.686.197-.392.197-.196.296-.392l-.395.98v-.098c-.098.196-.098.588-.592 1.569-.69 1.666-1.578 3.431-2.565 5 0 0 .197-.392.296-.687-.099.197-.296.589-.395.687.296-.392-.394.686-.197.392-.592 1.176-1.578 2.647-2.17 3.725 0 .098.098.883.197 1.667s.395 1.47.395 1.47c-.1.295-.198.589-.296.687.098-.098.296-.686.394-.98v-.099c.296-.784.099-.196.493-.882.1 0-.295.686-.493 1.275.198-.49.493-1.079.592-1.275.296-.49 0 .098.395-.49.197-.392.493-.98.79-1.47.788-1.177 1.084-1.961 1.775-3.04l-.099.098c.296-.392.69-1.176 1.086-1.96-.1.195-.296.392 0-.099.493-.882.789-1.47 1.085-2.058l.197-.687c.69-1.568 2.368-5.49 2.861-9.804.296-2.157.296-4.313 0-6.176-.197-1.863-.592-3.333-.888-4.118v.098c-.394-1.274-.986-2.843-1.973-4.51-.986-1.666-2.27-3.235-3.946-4.607-.395-.295-.79-.687-1.283-.98-.493-.295-.986-.589-1.381-.785-.987-.392-1.973-.784-3.059-.882-.986-.098-2.071-.098-2.96.196-.986.294-1.775.784-2.367 1.372-.395.294-.79.784-1.085 1.373-.296.588-.395 1.176-.494 1.666.099-.588.099-.392.099.098-.099.785 0 1.177 0 1.373 0 .196 0 .196.099.294.098 0-.099.098.493 1.569.197.392.395.98.888 1.47.394.589.986 1.177 1.776 1.667 1.48.98 3.354 1.667 5.327 1.863 3.848.49 7.597-.785 8.88-1.373 1.38-.686 3.058-1.568 4.143-2.647l-.098.098c.592-.49 2.762-2.255 4.045-4.706.394-.588.592-1.274.888-1.862.197-.589.394-1.275.493-1.765.099-.294.099-.588.197-.784 0-.295.099-.49.099-.687.099-.392.099-.784.099-.98v-2.451c-.099.196-.296-1.177-.494-1.667-.197-.784-.888-2.45-1.578-3.627h.098c-.296-.49-.69-1.177-1.183-1.765-.494-.588-.987-1.176-1.283-1.373-.592-.686-1.579-1.372-2.664-2.058C19.732 1.078 18.45.588 17.265.392 16.772.196 16.28.098 15.687 0h-.197s-.691.392-.888.784c-.296.49-.099.883 1.282 1.275h-.098l.591.098c.691.098.987.196.888.196-.296-.098-.592-.098-.888-.196.691.098.198.098-.098.098.296.098.493.098.79.196.098 0-.1 0-.198-.098.394.098.888.098 1.282.294.592.196 0 .098.79.392 3.749 1.667 6.215 5.49 6.708 9.608v-.098c.198 1.275.1 2.353 0 3.53-.098.294-.098.392-.197.49 0-.098-.197 1.47-.986 2.94-.395.687-.79 1.373-1.184 1.864-.494.686-.691.98-.79.98z" transform="translate(42) translate(5.045)"/>
            </g>
            <g fill="#FFC220">
                <path d="M40.801 3.235c-.197-.098-.493-.294-.79-.392.198.196.494.294.79.392zM1.436 35.098c0-.098 0-.098.099-.196-.099 0-.099.098-.099.196z" transform="translate(42) translate(44.256 25.49)"/>
                <path d="M23.437 1.078c-.888.393-.296.098-1.184.393-.099.098-.493.294-.79.49-.295.196-.69.392-.788.588l-.395.294c-.099.196-.296.392-.493.686l.098-.098c-.098.196-.296.393-.394.589-.099.196-.198.294-.099 0-.197.392-.493 1.176-.69 2.156-.1.98-.1 1.961-.1 2.942 0 1.96.1 4.02.1 4.706 0-.197 0-.687.098-.785.099.392 0 .588.099.785-.099.196 0 .882-.099 1.176l.099.098v.196c.197 1.667.098.392.098 1.863.099.882.198 1.274.198 1.765 0-.098 0-.295.098 0-.098 0 .099.588.099.686 0 .196.099.98.197.686 0 .098 0 .784-.098.392 0 .196 0 .392.098.589v-.295c.099.687.099 1.177.198 1.569v-.294c.098.392.098.784 0 .882l-.099-.392c.099.686.099.98 0 1.275v-.098c0 .196-.099.784-1.085 1.078-.888.294-2.17.294-2.467.392h.296l-.592.098c.099 0 .296-.196.296-.196-.69.098-2.664.196-4.735.588-2.072.294-4.045.98-4.637 1.275-.494.196-.1-.098-.1-.098-.591.294-.196.196-.69.392-.098.098 0-.098.099-.098l-.395.196c.296-.098.198 0 .296 0l-.592.294v-.098c-.098.098-.296.294-.888.588-.986.589-1.973 1.373-2.762 2.157 0 0 .099-.196.296-.392l-.395.392c.198-.196-.296.392-.098.196-.494.687-1.184 1.569-1.48 2.255 0 .098.296.588.493 1.079.296.49.592.98.69.98-.098.196-.098.392-.098.392s.197-.392.197-.588l-.098-.098c.098-.392.098-.098.197-.49.099 0-.099.392-.197.686.098-.294.296-.588.296-.686.197-.294 0 .098.197-.294.099-.197.197-.589.395-.785.394-.588.592-.98 1.085-1.372v.098c.197-.196.493-.49.888-.785-.099.098-.198.098 0-.098.394-.294.69-.49.986-.686l.296-.196c.395-.196.987-.588 1.875-.98.888-.393 1.973-.687 3.058-.98 2.17-.49 4.539-.687 5.525-.785h-.098c.789-.098 1.578-.098 2.86-.294.593-.098 1.283-.294 1.974-.784.69-.49 1.184-1.275 1.381-2.06.099-.784.099-1.47 0-2.058-.099-.588-.099-1.079-.197-1.569-.099-.98-.197-1.96-.296-2.745 0-.49-.099-1.078-.099-1.568 0 .294 0 .196-.098 0-.1-1.471 0-.099-.198-1.57-.098-.881-.197-2.94-.197-5 0-.98 0-2.058.099-2.842.098-.785.197-1.275.394-1.569.198-.588.79-1.078 1.283-1.47.296-.197 1.48-.589 2.86-.687 1.382-.098 2.862-.098 3.355-.098h-.098c.888 0 .789.098 1.38.098-.098-.098.692-.098.987-.098.395 0 1.382.098 2.072.196.592 0 1.678.294 2.072.392.987.197 2.368.687 3.552 1.079.296.098.493.294.69.392h.1s.493-.294.788-.588c.296-.392.395-.883-.394-1.373l-.296-.098c-.395-.196-.592-.196-.592-.196l.592.196c-.395-.196-.099-.098.099-.098-.198-.098-.296-.098-.494-.196-.098 0 .099 0 .099.098-.197-.098-.592-.098-.79-.196-.394-.098 0-.098-.493-.294C35.572 1.47 32.908.98 30.146.784h.099c-.79 0-1.579-.098-2.368 0-.198 0-.296-.098-.296-.098.098 0-.987 0-2.072.098-.592 0-1.085.098-1.579.196-.197 0-.493.098-.493.098z" transform="translate(42) translate(44.256 25.49)"/>
            </g>
            <g fill="#20A5FF">
                <path d="M4.847.98C4.75.882 4.65.882 4.551.882c0 .098.099.098.296.098zM.309 3.431c0 .294-.099.098-.099.294.099.099-.098.393 0 .49 0 0 0 .099-.098.099.098 0 0 .098 0 .196v.196c0 .098-.1.098-.1 0 0 .196.1.98.396 1.569.295.588.789 1.078.986 1.176 0-.098-.197-.196-.099-.196.1 0 .1.098.198.098 0 .098.197.196.197.294h.099v.098c.493.196.098 0 .592.294.296.098.394 0 .592.098 0 0-.099-.098 0-.098 0 .098.197 0 .197.098.099 0 .296.098.197 0 0 .098.198.098.099.098h.197-.098c.197 0 .394.098.493 0h-.099c.099 0 .296 0 .296.098h-.098c.197 0 .394-.098.592-.098h-.1c.1-.098.494-.196.889-.392.296-.196.592-.49.69-.588H6.13l.098-.196s.1.196 0 .196c.198-.098.592-.686.79-1.177.197-.588.296-1.176.296-1.372 0-.098.098 0 .098 0 0-.196-.098-.098-.098-.196h.098v-.098c0 .098-.098.098-.098.098v-.196s-.099-.098-.099-.294c0-.295-.099-.687-.296-.98 0 0 .099 0 .099.097l-.099-.098c0 .098-.099-.098-.099 0-.197-.196-.296-.49-.493-.588 0 0-.493.196-.888.49-.394.294-.69.588-.79.686v.098c.1 0 0 0 0 .099h-.098s0 .098.099 0c0 0-.099 0 0 .098 0 0 .099 0 .099.098s.197.098.098.196c0 0 .099.098 0 .098h.099v.196h.099c0 .098.098.49 0 .784-.1.294-.198.588-.296.686-.1.098-.296.295-.592.295-.296.098-.592 0-.79 0-.098-.099-.098-.099-.197-.099v.099l-.197-.099c-.099-.098-.395-.294-.494-.49-.197-.294-.197-.49-.098-.588-.099-.098 0-.196 0-.294 0-.098 0-.294.197-.392.099-.196.296-.392.296-.392.099-.098.099-.098.197-.098-.098-.098 0-.197 0-.197.099 0 .099-.196.296-.294.099-.098.198-.098.296-.196h.592c0 .098.099.098.099.196 0 0 .099-.392.296-.784.099-.392.296-.882 0-1.176H4.354h.197c-.098 0 0 0 0-.098h-.197c-.099 0-.197.098-.296 0-.099 0 0-.098-.197-.098-.888 0-1.776.294-2.368.882-.198.196-.395.294-.494.49H.901l-.395.588c-.098.196-.197.294-.197.392v-.196z" transform="translate(42) translate(0 40.196)"/>
            </g>
            <g fill="#20D3B7">
                <g>
                    <path d="M19.041 11.583c.099-.196.099-.49.099-.785 0 .196 0 .49-.099.785zM.69 13.053v0zM10.36.112c-.889.196-.297 0-1.086.196C8.978.504 8.09.7 7.893.896c0 0-.296.196-.296.098-.099.098-.296.196-.494.393-.098.098.1 0 .1 0-.1.098-.297.196-.395.392-.198.098-.198.098-.1 0-.295.196-.788.686-1.183 1.372-.493.687-.888 1.667-.987 2.647-.296 2.06.494 3.922.79 4.412 0-.196-.198-.588-.198-.686.198.294.198.49.296.588-.098.196.296.686.395.98l.099.098.098.197c.888 1.274.198.294.987 1.372.493.588.79.784.986 1.177 0 0-.098-.197 0-.098 0 .098.395.392.395.49.099.098.493.588.395.392 0 .098.394.49.098.294.099.098.198.294.296.392l-.098-.196c.394.49.493.686.789.98v-.392c.197.294.395.49.395.687l-.198-.295c.296.393.494.687.79 1.079l-.1-.098c.198.196.692.98.79 1.667.197.686 0 1.47-.098 1.666 0 0 .098-.098.098-.196 0 .098-.098.196-.098.392l-.1-.294c-.098.196-.295.49-.591.686-.395.197-.987.295-1.579.197-1.38-.295-2.663-1.275-2.96-1.57-.295-.293 0-.097 0-.097-.394-.294-.197-.098-.493-.294-.098-.098 0 0 .099 0-.099-.098-.197-.196-.296-.196.099.196 0 .196.099.294-.1-.098-.198-.196-.395-.294-.099-.098-.296-.098-.592-.49-.493-.589-1.085-1.373-1.381-2.06 0 0 .098.099.197.295 0-.098-.099-.196-.197-.294 0 .196-.198-.294-.099-.098-.395-.49-.395-1.275-.592-1.765 0 0-.592-.196-.986-.49-.494-.294-.888-.687-.987-.687 0-.196 0-.392.099-.49 0 .098-.099.49-.099.686h.099v.589s-.099-.392-.099-.785c-.099.393-.099.687 0 .883 0 .294-.099 0-.099.392 0 .294.099.686.198.98.098.785.394 1.177.69 1.863l-.098-.098c.098.294.296.686.592 1.078-.1-.098-.1-.196.098 0 .296.49.493.687.69 1.079l.297.294c.592.686 2.17 2.255 4.242 3.137 1.085.49 2.27.687 3.453.49 1.184-.294 1.973-1.078 2.27-1.568v.098c.493-.686.789-1.765.69-2.843-.099-1.079-.493-2.157-1.085-3.04-1.085-1.764-2.467-3.137-3.256-4.02-.197-.293-.493-.685-.79-1.078.1.197 0 .197-.098 0-.69-.98-.099 0-.69-.98C7.3 9.622 6.61 8.151 6.708 6.78c0-.687.197-1.373.493-1.863s.592-.882.79-.98c.295-.49.986-.785 1.48-.98.295-.099 1.183-.393 2.17 0 .986.293 1.874.98 2.17 1.176l-.098-.098c.493.392.394.392.789.784 0-.098.395.294.592.49.197.294.69.784.987 1.275h-.1c.297.392.593 1.176.691 1.47.198.686.395 1.863.494 2.843-.099.196-.099.393-.198.589v.098s.395.294.79.49c.394.196.986.196 1.184-.588v-.295-.49.49c0-.392 0-.098.098 0v-.49.098c0-.196-.098-.49-.098-.784 0-.392.098 0 0-.49-.296-2.353-1.283-4.706-2.96-6.47 0-.099 0 0 .099 0-.494-.491-.987-.981-1.579-1.373l-.197-.196c0 .098-.79-.49-1.776-.785-.494-.196-1.085-.294-1.48-.294-.296-.392-.592-.294-.69-.294z" transform="translate(42) translate(36.616 10.784) translate(0 5.77)"/>
                </g>
                <g>
                    <path d="M15.983.392c-.099.098-.197.196-.296.392.099-.196.197-.294.296-.392zM15.687.686v.098-.098zM1.677 31.765s0-.098.099-.098l-.099.098z" transform="translate(42) translate(36.616 10.784) translate(1.973)"/>
                    <path d="M11.543 8.137c-.098.392-.098.098-.197.49 0 .197-.296.589-.296.687 0 0-.099.196-.099.098 0 .098-.098.196-.098.294h.098l-.098.294c-.1.098-.1.098-.1 0-.394.588-2.071 3.627-2.367 4.314.099-.098.197-.294.296-.294-.099.196-.197.294-.197.392-.099 0-.198.392-.395.49V15l-.099.098c-.394.784-.098.196-.493.882-.197.393-.197.687-.395.883 0 0 .1-.098.1 0-.1 0-.1.294-.198.294 0 .098-.197.392-.099.392-.098 0-.197.294-.197.098-.099.098-.099.196-.099.294l.099-.098c-.197.294-.296.49-.395.784l.099-.098c-.099.196-.197.393-.296.393l.099-.197c-.198.295-.296.49-.395.883l.099-.098c-.1.392-1.086 2.255-1.184 2.647l.098-.098-.098.294s-.099-.196-.099-.294c-.296.588-1.973 3.725-2.27 4.314-.196.196-.098 0-.098 0-.098.294 0 .196-.098.392v-.098c0 .098-.1.196-.1.196.1-.098.1 0 .198-.098l-.197.294c0 .098 0 .196-.197.49-.296.49-.592 1.078-.79 1.569 0 0 0-.098.099-.294 0 .098-.099.196-.099.196.099-.098-.098.196 0 .098-.098.392-.394.882-.493 1.176.099.098 1.283 1.569 1.381 1.569-.098.098-.098.196-.098.196s.197-.196.197-.294l-.099-.098c.099-.294.099 0 .198-.294.098 0-.1.196-.1.392.1-.196.198-.294.198-.392.099-.197.099.098.197-.098.1-.099.1-.393.198-.49.296-.393.197-.589.493-.981.099-.098.197-.392.296-.588 0 .098-.099.098 0 0 .197-.196.197-.392.395-.589l.098-.196c.494-.882 2.368-4.51 2.763-5.392.69-1.372 2.269-4.215 2.96-5.686.197-.196.296-.49.493-.686-.099.098-.099.098 0 0 .395-.687 0-.098.395-.785.394-.882 2.071-3.921 2.565-4.607.098-.393.493-.883.592-1.275.197-.392 1.48-2.647 1.677-3.137v.098c.197-.392.197-.294.395-.686-.1 0 0-.393.098-.49.099-.197.296-.687.493-1.08.1-.293.395-.783.494-.98.296-.49.69-1.078.986-1.764l.296-.294v-.098S17.068.196 16.28.784L16.18.98c-.098.196-.098.295-.197.295l.099-.295c-.1.196-.1 0-.1 0 0 .098-.098.196-.098.196h.099c0 .099-.099.295-.197.393-.1.196-.1 0-.198.196-.69 1.176-1.381 2.353-2.072 3.627v-.098c-.197.392-.394.686-.493 1.079l-.099.098c-.296-.295-1.38 1.666-1.38 1.666z" transform="translate(42) translate(36.616 10.784) translate(1.973)"/>
                </g>
            </g>
        </g>
    </g>
</svg>
