<svg xmlns="http://www.w3.org/2000/svg" width="161" height="117" viewBox="0 0 161 117">
    <g fill="none">
        <path fill="#F0F0F0" d="M103.988 108.056s-38.149 18.08-60.584 2.83c-22.436-15.25-75.047-68.937 2.267-91.34 77.313-22.403 123.201 3.38 114.211 29.713-9.068 26.254-35.49 48.971-55.894 58.797z"/>
        <g>
            <path fill="#741FA2" d="M39.873 1.252c.232.078-20.71 46-20.71 46l-5.95.704c-6.722-9.153-4.327-21.983-1.39-31.371.54-1.721 1.622-3.677 2.782-5.476 4.559-7.12 12.44-11.5 20.709-10.874 2.009.156 3.631.547 4.559 1.017z" transform="translate(58)"/>
            <path fill="#00CDAD" d="M45.823 114.922l21.945-47.174s-39.718-6.65-51.154-27.615C7.34 17.837 19.086 5.789 19.086 5.789S-4.868 27.694 1.855 72.833c5.177 35.283 43.968 42.089 43.968 42.089z" transform="translate(58)"/>
            <g>
                <path fill="#5DE5B4" d="M25.114 33.874C39.873 48.27 43.968 58.204 39.1 66.966c-4.868 8.762-15.3 8.684-24.032 2.269 13.06 12.908 30.755 16.037 30.755 16.037L67.768 38.1s-39.718-6.65-51.154-27.616C15.068 6.65 14.064 3.207 13.523 0c.077-.078-4.946 17.68 11.59 33.874z" transform="translate(58) translate(0 29.728)"/>
                <path fill="#863BAE" d="M10.432 55.7c1.468.079 2.627-.234 3.323-.469l-.078.079c1.005-.313 2.164-.861 3.323-1.956 1.082-1.017 1.932-2.582 2.318-4.147.387-1.564.31-3.129.155-4.459-.155-1.33-.464-2.581-.773-3.52-.077-.626-.386-1.408-.54-1.956.076.313 0 .235-.078 0-.696-1.8-.077-.078-.85-1.877-.464-1.017-1.623-3.364-3.091-5.555-1.391-2.19-3.091-4.224-3.786-4.928-.773-.705-1.7-1.643-2.628-2.27l.078.08c-.232-.157-.696-.549-1.391-.94-.696-.47-1.546-.86-2.628-1.173-.927-.235-2.009-.235-2.936.156-.077 1.174-.077 2.347-.155 3.52.232-.39.464-.703.696-.938.154-.078.154-.078.232-.078 0 0 .463-.391 1.313-.235.928.156 1.855.704 1.932.782l.077-.078c.696.47.155.235.85.626.31.078 1.082.86 1.314.939 0 0 .31.313.232.313.154 0 .309.234.54.469.078.078 0-.078-.076-.156l.463.39c.155.157.155.235 0 .079.541.548 2.01 2.269 3.323 4.146 1.314 1.878 2.318 3.99 2.704 4.772 0-.234-.309-.704-.309-.86.232.39.31.626.387.782-.078.235.386.939.386 1.252l.155.078.077.235c.773 1.799.232.39.773 2.034.309.939.54 1.408.618 1.956 0-.079 0-.313.077-.079-.077.079.155.626.155.783.077.234.154 1.017.231.782 0 .156.078.86-.077.47.077.234.077.469.077.625v-.313c0 .391.078.704.078 1.017v.783-.313c0 .469 0 .86-.155 1.017v-.47c-.077.783-.154 1.252-.232 1.8 0-.079.078-.157.078-.235-.078.391-.387 1.564-1.16 2.503-.772.939-1.854 1.487-2.163 1.643l.309-.078c-.155.078-.386.235-.618.313.077 0 .232-.313.309-.313-.31.156-1.005.391-1.855.47-.85.078-1.854 0-2.859-.392-2.009-.704-3.632-2.425-4.018-2.973-.309-.47 0-.156 0-.156-.464-.47-.232-.157-.618-.626-.077-.156.077 0 .154.078-.154-.156-.309-.39-.309-.39.155.234 0 .234.078.312-.155-.156-.31-.391-.464-.626h.077c-.077-.156-.386-.235-.772-.86l-.078-.079c.464 1.956 1.082 3.755 1.7 5.477.464.39.928.782 1.468 1.095 1.469 1.017 3.169 1.564 4.637 1.643z" opacity=".3" transform="translate(58) translate(0 29.728)"/>
            </g>
        </g>
        <g fill="#B267D9">
            <g>
                <path d="M2.407 32.45c0-.236-.077-.55-.077-.864-.078.314 0 .55.077.864zM2.33 31.586s0 .078 0 0zM20.5.786c-.077.078-.077.157-.155.235.078-.078.156-.157.156-.235z" transform="translate(0 7) translate(98.62)"/>
                <path d="M6.756 16.893v-.079c.466-.628.155-.157.621-.707.078-.314.777-.864.854-1.1l.233-.236c0-.078.233-.235.389-.392.077-.079-.078 0-.078.078l.31-.314c.156-.079.233-.079.078 0 .466-.393 1.941-1.572 3.65-2.043.854-.236 1.708-.393 2.485-.314.699 0 1.32.157 1.63.235-.155-.078-.543-.157-.698-.235.31 0 .466.078.62.078.078.079.234.157.39.157.154.079.387.158.465.236h.078l.155.079c.621.314.699.393.699.393.078.078.078.078.543.471.544.55.777.786.932 1.179 0-.079-.077-.236 0-.079 0 .079.31.471.233.55.078.157.233.786.233.55 0 .079.156.629 0 .314.078.157.078.393.078.472v-.236c.078.629.078.943.078 1.336 0-.079.077-.157.077-.236 0 .393-.077.629-.155.786 0-.157.078-.236.078-.393-.156.55-.233.943-.466 1.336l.077-.158c-.077.236-.699 1.179-1.475 1.258-.388.078-.777-.079-1.087-.236-.31-.157-.544-.393-.622-.55.078.078.078.157.156.236-.156-.079-.233-.236-.389-.393 0 .078.233.078.311.157-.155-.236-.466-.629-.621-1.336-.155-.707-.078-1.65.078-2.593.388-1.885 1.087-3.85 1.242-4.4.155-.471.078-.078.078-.078.155-.55 0-.236.233-.707.077-.158 0 .078 0 .078.077-.236.155-.393.155-.393-.078.236-.155.157-.233.236l.233-.629v.079c.078-.157 0-.393.233-.943.388-1.021.854-2.043 1.242-3.064l-.155.471.233-.471c-.155.236.155-.393.078-.236.233-.786.776-1.65 1.01-2.278-.079-.079-.622-1.965-.7-2.043.078-.157.233-.393.233-.472-.077.079-.233.393-.388.629v.078c-.233.472-.078.079-.31.55-.078 0 .155-.392.31-.785-.155.314-.388.628-.388.785-.156.315 0-.078-.233.315-.156.314-.233.628-.466.943-.388.785-.466 1.178-.854 1.885v-.078c-.156.235-.311.785-.544 1.178.078-.157.155-.235 0 .079-.233.55-.388.864-.544 1.257l-.077.393c-.388.943-1.165 3.221-1.786 5.657-.31 1.179-.621 2.436-.621 3.693 0 .628.077 1.178.232 1.65.156.471.389.864.544 1.1l-.078-.079c.233.393.544.786 1.01 1.179.466.393 1.087.707 1.786.786.699.078 1.553-.158 2.097-.55.62-.393 1.087-.943 1.397-1.572.7-1.257.777-2.671.544-3.85-.233-1.178-.777-2.2-1.243-2.907-.31-.471-.776-1.021-1.242-1.414.233.235.155.157-.078 0-.699-.55-.776-.472-.776-.55 0 0-.078-.079-.854-.393-.466-.157-1.243-.472-2.252-.629-1.01-.157-2.175-.078-3.262.157-1.087.236-2.174.708-2.95 1.179-.855.471-1.398.943-1.709 1.179-.621.628-1.475 1.414-1.941 2.042l.077-.078c-.31.393-1.242 1.571-2.019 2.907-.776 1.336-1.475 2.75-1.63 3.221l.077-.157c-.31.865-.388.707-.621 1.415.078-.079-.155.707-.233 1.021-.155.471-.388 1.414-.544 2.2-.077.629-.31 1.807-.388 2.279C.466 28.05.311 29.7.544 31.114V32.214s.388.315.776.393c.388.079.777-.157.777-.943h.077c0-.078 0-.235-.077-.314 0-.393-.078-.55-.078-.55l.078.55c0-.393 0-.157.077 0v-.471.157c-.077-.236-.077-.55-.077-.786 0-.393.077 0 .077-.471 0-2.515.544-5.029 1.476-7.386v.078c.233-.707.543-1.335.854-2.042.078-.158.155-.236.155-.236-.077.078.388-.864.854-1.729.233-.471.544-.864.7-1.178.388-.157.543-.393.543-.393z" transform="translate(0 7) translate(98.62)"/>
                <g>
                    <path d="M.932 12.807c.077 0 .155-.078.233-.157-.078 0-.156.079-.233.157zM17.705.786h-.078.078z" transform="translate(0 7) translate(98.62) translate(6.989 32.214)"/>
                    <path d="M5.28 9.743c.156-.236.078-.079.233-.157 0-.157.311-.236.389-.315 0 0 .077-.078.077 0 0-.078.078-.078.156-.157h-.078l.155-.078c.078 0 .078 0 0 .078.389-.235 2.02-1.257 2.485-1.493-.077 0-.155.079-.233.079.078-.079.156-.079.156-.157.077.078.233-.079.388-.079v-.078h.077c.389-.315.078-.079.466-.315.233-.157.311-.235.466-.314 0 0-.077 0 0 0 0 0 .156-.157.233-.078.078-.079.233-.158.156-.158.077 0 .233-.078.155 0 .078 0 .155-.078.155-.078h-.077c.155-.079.31-.157.388-.236h-.078c.078-.078.233-.157.31-.078l-.077.078c.233-.078.31-.157.466-.314h-.078c.156-.157 1.243-.786 1.398-.943h-.077l.155-.157v.157c.388-.157 2.252-1.179 2.562-1.257.156 0 .078.078.078.078.155-.078.078-.078.155-.157.078 0 0 0 0 .079.078 0 .156-.079.156-.079-.078 0-.078-.078-.156-.078l.156-.079c.077 0 .077-.157.233-.236.31-.078.62-.235.931-.392l-.077.078c.077 0 .077-.078.155-.078-.078 0 .155-.079.078-.079.155-.157.543-.236.699-.393 0-.078-.078-1.493-.156-1.65.078 0 .156-.078.156-.078s-.156 0-.233.078v.079c-.156.078-.078 0-.233.078 0 0 .077-.078.233-.157-.078.079-.233.079-.233.079-.078 0 0-.079-.156 0-.077.078-.155.157-.31.157-.233.078-.388.236-.621.236-.078 0-.233.078-.389.157.078 0 .078 0 0 .078-.155.079-.31.157-.388.157l-.078.079c-.543.236-2.717 1.336-3.261 1.65-.854.471-2.563 1.336-3.34 1.886-.154 0-.31.157-.465.235.078 0 .078 0 0 .079-.388.236 0 .079-.388.314-.466.315-2.252 1.415-2.718 1.65-.156.157-.466.315-.7.55-.232.157-1.552 1.022-1.785 1.257h.077c-.232.236-.232.158-.388.236.078 0-.077.236-.155.314l-.466.472c-.155.157-.388.393-.544.471-.233.157-.698.472-1.01.707l-.31.079s.466 1.336 1.087 1.179l.078-.079c.078-.079.155-.157.155-.079l-.155.079c.078-.079.078 0 0 .079.078 0 .078-.079.155-.079h-.077c.077-.079.077-.157.155-.157.078-.079.078.078.155-.079.7-.471 1.32-.943 1.942-1.414.233-.157.31-.314.543-.471h.078c-.078 0 .932-.786 1.01-.786z" transform="translate(0 7) translate(98.62) translate(6.989 32.214)"/>
                </g>
                <g>
                    <path d="M3.261.629h-.233.233zM.621 4.164c.156.236 0 .079.078.315.078.078.078.314.155.392v.079c.078 0 .078.079.078.157V5.03l.077.157c0 .078 0 .078-.077 0 .077.157.388.628.854 1.021.466.314 1.01.55 1.242.55-.077-.078-.155-.078-.232-.157.155 0 .155.079.232 0 0 .079.233.079.311.157V6.68h.078c.543-.079.155 0 .621-.079.233-.079.388-.157.466-.157 0 0-.078 0 0-.079 0 .079.155-.078.233-.078.078 0 .233-.079.155-.157.078 0 .233-.079.155 0 .078 0 .078-.079.156-.079h-.078c.155-.079.31-.157.388-.314h-.077c.077-.079.155-.157.233-.157l-.078.078c.155-.157.233-.236.31-.393l-.077.079c.078-.079.233-.393.388-.707.156-.315.156-.629.156-.707l-.078.078V3.85s.155.079.155.157c.078-.157.078-.786-.077-1.336-.156-.55-.544-.942-.622-1.1-.077-.078 0-.078.078-.078-.155-.079-.078 0-.155-.079h.077c-.077 0-.077-.078-.077-.078.077.078 0 .078 0 .157-.078-.079-.078-.079-.156-.079 0 0-.155 0-.233-.078-.233-.157-.465-.315-.776-.393h.155s-.077 0-.155-.079c.078.079-.155 0-.078 0-.233 0-.466-.078-.699 0 0 .079-.077.393-.155.786v.786h-.078.078v-.079h.078c0 .079 0 .079-.078.079h.078v.078s.077-.078.077 0c.078.079.156-.078.233 0 0 0 .078 0 .156.079v-.079c.077.079.077.079.155.079h.078c.077.078.31.236.466.471.155.236.155.472.155.55 0 .157-.078.393-.31.629-.156.236-.39.393-.544.471H3.96v.079c-.155 0 0 0-.155.078-.078 0-.388-.078-.621-.235-.233-.157-.388-.393-.388-.472-.078-.078-.156-.235-.233-.314 0-.079-.078-.236-.078-.393 0-.157.078-.393.078-.393 0-.157.077-.078.155-.157-.078 0-.078-.157 0-.157 0-.079.078-.236.155-.314 0-.079.155-.157.233-.236l.466-.236c.078 0 .078.079.155.079 0 0 0-.314-.077-.707C3.65.943 3.572.55 3.26.47h-.077c-.156 0-.156.079-.156 0l.156-.078c-.078 0-.078 0 0-.079h-.156.078c-.078 0-.155.079-.233.079-.077.078 0-.079-.155 0-.699.314-1.243.786-1.63 1.493-.079.235-.156.393-.234.628 0 .079-.077.079-.077.079s-.078.314-.078.628v.472c-.155.393-.078.471-.078.471z" transform="translate(0 7) translate(98.62) translate(33.391 35.357)"/>
                </g>
            </g>
            <g>
                <g>
                    <path d="M2.33 8.643c.155-.236.233-.629.466-1.022-.156.236-.311.55-.466 1.022zM45.893 21.921c-.077-.078-.155-.157-.31-.157.155.079.233.157.31.157z" transform="translate(0 7) translate(0 11) translate(0 22.786)"/>
                    <path d="M19.18 6.443h.078c.544.864.155.236.544 1.1.31.236.62 1.414.776 1.65 0 0 .156.393.078.393.078.157.155.471.233.707.077.078 0-.079 0-.157.077.235.155.393.155.628 0 .236 0 .315-.078.079.078.393.233 1.257.233 2.278 0 1.022-.077 2.279-.465 3.536-.311 1.179-.855 2.357-1.476 3.064-.621.786-1.242 1.179-1.63 1.336l.776-.393c-.31.315-.544.315-.699.472-.155 0-.854.314-1.165.235l-.077.079h-.233c-.932 0-1.01-.079-1.088-.079 0 0-.077 0-.155-.078-.078-.079-.31-.079-.621-.314-.31-.236-.544-.472-.699-.708-.155-.235-.233-.392-.31-.628 0 .078.077.236 0 .078 0 0-.156-.628-.078-.707 0-.235.155-1.021 0-.785.077-.158.31-.865.155-.393.078-.236.155-.472.233-.629-.078.079-.078.157-.155.314.31-.785.621-1.178.932-1.65l-.233.236c.31-.471.62-.786.776-.864-.155.157-.233.236-.31.393.543-.629 1.009-1.022 1.553-1.493l-.233.157c.388-.314 1.63-1.179 3.028-1.729 1.398-.55 2.951-.785 3.417-.864h-.388c.233-.078.543-.078.776-.157-.077 0-.388.157-.466.157.854-.157 3.495-.236 6.057.393 2.563.629 4.892 1.964 5.514 2.357.543.393.077.157.077.157.7.393.31.157.854.472.156.078-.077 0-.155 0l.466.314c-.31-.236-.155-.157-.233-.314l.699.471h-.078c.156.079.466.157 1.165.707 1.165.865 2.33 1.886 3.417 2.907 0 0-.233-.157-.466-.392.155.157.388.314.466.471-.233-.236.466.393.31.236.855.628 1.709 1.728 2.485 2.357.078 0 .7.078 1.32.078.622 0 1.165 0 1.243-.078.233.157.388.314.544.314-.078-.078-.466-.314-.7-.55h-.077c-.544-.393-.078-.078-.621-.55 0-.078.466.314.854.629-.388-.236-.699-.629-.932-.707-.31-.315.078 0-.31-.393-.311-.236-.7-.55-1.01-.943-.776-.786-1.32-1.179-2.019-1.964l.078.078c-.233-.236-.854-.707-1.32-1.178.155.157.233.235-.078 0-.544-.55-1.01-.865-1.398-1.258l-.466-.314c-1.087-.786-3.805-2.828-7.066-4.007-1.553-.629-3.262-1.021-4.737-1.179-1.475-.157-2.64-.157-3.34-.078h.078c-1.087.078-2.407.236-3.805.707-1.397.471-2.95 1.179-4.27 2.2-.311.236-.622.55-.932.864-.311.315-.622.629-.855.943-.543.707-.931 1.414-1.242 2.2-.31.786-.388 1.572-.388 2.357.077.786.31 1.493.621 2.043.155.393.466.786.854 1.1.388.314.854.55 1.165.707-.388-.235-.233-.157.078 0 .62.236.931.236 1.087.236h.233c.077 0 .077.079 1.32-.079.31-.078.776-.157 1.32-.392.544-.236 1.087-.55 1.553-1.022 1.01-.943 1.864-2.357 2.407-3.771 1.01-2.907.777-6.05.544-7.15-.233-1.179-.699-2.672-1.243-3.693l.078.078c-.31-.55-1.242-2.514-2.873-4.007-.388-.393-.854-.707-1.243-1.021-.466-.236-.854-.55-1.32-.707-.233-.079-.388-.157-.62-.315-.156-.078-.39-.157-.545-.157-.31-.157-.62-.235-.776-.235l.155.078C13.046.393 13.201.393 12.192.236c.155.078-1.01 0-1.398.078-.621 0-2.097.236-3.029.55V.786c-.388.157-1.01.393-1.553.628-.543.236-1.01.55-1.32.707-.621.393-1.32.943-2.019 1.65-.699.786-1.242 1.65-1.63 2.515-.234.393-.389.707-.544 1.1l-.078.157s.156.55.466.864c.31.314.699.236 1.243-.786V7.7l.155-.393c.233-.471.31-.707.31-.628-.077.235-.232.471-.31.628.233-.471.078-.157 0 .079.078-.236.155-.393.31-.55 0-.079-.077.078-.077.157.078-.236.233-.629.466-.943.31-.471.077 0 .388-.55 1.941-2.593 5.358-3.771 8.62-3.457h-.078c1.01.078 1.864.314 2.718.628.233.158.233.158.31.236-.077-.078 1.088.472 2.02 1.257.465.393.931.865 1.242 1.257.621.708.776.943.776 1.022z" transform="translate(0 7) translate(0 11) translate(0 22.786)"/>
                </g>
                <g>
                    <path d="M2.95.236c-.077.157-.232.393-.31.628l.31-.628zM2.563.943L2.563.943 2.64.943zM27.256 32.371c-.077 0-.077 0-.155-.078.078 0 .078 0 .155.078z" transform="translate(0 7) translate(0 11) translate(23.296)"/>
                    <path d="M.777 14.064c.232.707 0 .236.232.943.078.079.233.393.311.629.155.235.31.55.388.628l.233.315c.156.078.311.235.466.392l-.077-.078c.155.078.31.236.466.314.155.157.232.157 0 .079.31.157.931.471 1.708.55.776.157 1.553.157 2.33.157 1.553.078 3.183 0 3.727 0-.155 0-.544 0-.621-.079h.62c.156.079.7 0 .933.079l.077-.079h.156c1.32-.078.31 0 1.475-.078.699-.079 1.01-.157 1.398-.157-.078 0-.233 0 0-.079 0 .079.466-.079.543 0 .156 0 .777-.079.544-.079.078 0 .621 0 .31.079.156 0 .311 0 .467-.079h-.233c.543-.078.931-.078 1.242-.157h-.233c.31 0 .621-.078.699 0h-.31c.543-.078.776 0 1.009 0h-.078c.156 0 .621.079.777.865.233.707.233 1.728.31 1.964v-.236l.078.472c0-.079-.155-.236-.155-.236 0 .55.077 2.121.31 3.771.233 1.65.7 3.222.855 3.693.077.393-.078.079-.078.079.233.471.155.157.31.55.078.078-.077 0-.077-.079l.155.314c-.078-.235 0-.157 0-.235l.233.471H21.2c.078.079.233.236.466.707.466.786 1.01 1.572 1.709 2.2 0 0-.156-.157-.31-.235l.31.314c-.156-.157.31.236.155.157.544.393 1.165 1.021 1.786 1.257.078 0 .466-.157.932-.393.388-.235.776-.471.776-.55.156.079.311.079.311.157 0 0-.31-.157-.466-.157l-.077.079c-.311-.157-.078-.079-.389-.157 0-.079.31.078.544.157-.233-.079-.466-.236-.544-.236-.233-.157.078 0-.233-.157-.155-.079-.466-.157-.621-.314-.466-.393-.776-.472-1.087-.865h.078c-.078-.157-.389-.392-.622-.707.078.079.078.157-.077 0-.233-.314-.389-.55-.544-.785l-.155-.236c-.156-.314-.466-.864-.777-1.493-.31-.707-.543-1.571-.699-2.436-.388-1.807-.466-3.693-.543-4.4v.079c-.078-.629 0-1.257-.156-2.279-.077-.471-.232-1.021-.543-1.571-.31-.55-1.01-1.022-1.63-1.1-.622-.157-1.166-.079-1.632-.079-.465.079-.854.079-1.242.157-.777.079-1.553.158-2.174.158h-1.243c.233 0 .156.078 0 .078-1.165.079-.077 0-1.242.079-.7.078-2.33.078-3.96 0-.777 0-1.631-.079-2.253-.079-.62-.078-1.009-.236-1.242-.314-.466-.157-.854-.629-1.087-1.1v.078c-.155-.235-.466-1.178-.466-2.357-.078-1.1 0-2.278 0-2.671v.078c0-.707.078-.628.155-1.1-.077.079-.077-.55 0-.785 0-.315.078-1.1.156-1.65.077-.472.233-1.336.31-1.65.233-.786.621-1.886.932-2.829.078-.157.233-.393.31-.55V1.18S3.884.786 3.65.55c-.31-.236-.7-.314-1.087.236l-.078.235c-.155.315-.155.472-.155.472l.155-.472c-.155.315-.078.079 0-.078-.078.157-.078.236-.155.393 0 .078 0-.079.077-.079-.077.157-.077.393-.233.629-.155.314-.077 0-.233.393C1.242 4.32.7 6.443.544 8.643v-.079C.466 9.193.466 9.821.466 10.45c0 .157-.078.236-.078.236 0-.079 0 .785.078 1.65 0 .471.078.864.078 1.257.155.236.233.471.233.471z" transform="translate(0 7) translate(0 11) translate(23.296)"/>
                </g>
                <g>
                    <path d="M.932 1.571c-.078 0-.078.158-.155.236.077-.078.077-.157.155-.236zM2.796 2.043c0-.079 0 0 0 0zM1.941 5.5c.233.079.078.079.233.157.078-.078.31.157.389.157l.077.079c.078-.079.078 0 .156 0v-.079h.155c.077 0 .077.079 0 .079.155.078.776.157 1.32 0s.932-.472 1.087-.55c-.078 0-.155.078-.233.078.078-.078.155-.078.155-.157.078.079.156-.157.311-.078v-.079h.078c.233-.393.077-.078.31-.393.156-.157.078-.314.233-.393 0 0-.077.079-.077 0 .077 0 .077-.157.077-.157 0-.078.078-.235 0-.157.078 0 .078-.157.078-.078 0-.079.078-.079.078-.158v.079c.077-.157.155-.236.077-.393v.079c0-.079 0-.236.078-.236V2.986v.078c0-.078-.078-.393-.155-.707-.078-.314-.311-.55-.389-.628v.078l-.077-.078h.155c-.078-.158-.388-.55-.777-.865C4.892.55 4.426.471 4.27.393c-.077-.079 0-.079 0-.079H4.039c.078 0 0 .079.078.157H3.96S3.883.55 3.727.55c-.233 0-.543 0-.776.079L3.028.55h-.155c.078 0-.077.079-.077.079-.156.157-.389.157-.544.314 0 .078.078.393.233.707.155.314.31.629.388.707h-.077.077V2.28c0-.079 0 0 .078 0v.078s.077 0 .077-.078c0 0 0 .078.078.078 0 0 0-.078.078-.078.077 0 .077-.079.155-.079h.155v-.079h.156l.077-.078c.078 0 .389 0 .622.157.233.079.388.314.466.393.077.078.155.314.155.471 0 .236-.078.472-.155.629-.078 0-.078.078-.156.157 0 0 .078 0 0 0-.155.157 0 0-.077.157-.078.079-.233.236-.466.314-.233.079-.389 0-.466 0-.078.079-.156 0-.233 0-.078 0-.156-.078-.31-.235-.156-.157-.234-.236-.234-.315-.077-.078 0-.078-.077-.157-.078.079-.156 0-.156-.078 0-.079-.155-.157-.155-.236-.078-.079-.078-.236-.078-.236 0-.157.078-.314.078-.471.078 0 .078 0 .155-.079 0 0-.31-.157-.621-.393-.31-.157-.621-.392-.854-.235v.078c-.078.079 0 .157-.078.157 0-.078 0-.078.078-.157-.078.079-.078 0-.078 0s0 .079-.078.157v.236c0 .079-.077 0-.077.157-.155.707-.078 1.415.233 2.043.077.157.233.314.31.472v.078l.389.393c.077.079.233.157.31.236-.31-.236-.233-.236-.233-.236z" transform="translate(0 7) translate(0 11) translate(28.732 48.714)"/>
                </g>
            </g>
        </g>
    </g>
</svg>
