<svg xmlns="http://www.w3.org/2000/svg" width="153" height="117" viewBox="0 0 153 117">
    <g fill="none">
        <path fill="#F0F0F0" d="M92.08 108.252s-30.634 17.528-48.557 2.963C25.6 96.65-16.283 45.327 45.748 23.449c62.03-21.879 98.638 2.774 91.329 28.057-7.31 25.283-28.6 47.225-44.998 56.746z"/>
        <path fill="#741FA2" d="M68.162 79.068l4.02 15.95c.766 3.14 3.766 5.213 7.02 4.961l16.337-1.381c1.404-.126 2.68-.816 3.446-1.947L127 59.476l-14.997-10.675L96.88 38 68.864 75.175c-.766 1.068-1.085 2.512-.702 3.893zm14.997 6.154c2.042.691 3.19 2.826 2.552 4.898-.702 2.01-2.871 3.14-4.977 2.512-2.042-.69-3.19-2.825-2.553-4.898.702-2.01 2.936-3.14 4.978-2.512z"/>
        <g>
            <path fill="#FF5C6D" d="M53.435 43.79l-39.054 4.776c-5.369.682-10.226-3.04-10.93-8.188L.257 16.065c-.703-5.21 3.132-9.924 8.437-10.607L47.746.682c5.37-.682 10.227 3.04 10.93 8.188l3.196 24.314c.703 5.21-3.068 9.924-8.437 10.606z" transform="translate(31 35)"/>
            <g fill="#FFF">
                <g>
                    <path d="M13.04.372c-.065.062-.193.186-.256.31.063-.124.127-.186.255-.31zM1.79 25.244c0-.062 0-.062.064-.124 0 .062 0 .062-.064.124z" transform="translate(31 35) translate(17.258 11.785) translate(6.392)"/>
                    <path d="M9.076 6.327c-.128.372-.064.124-.191.372.063.124-.256.434-.256.558 0 0-.064.124-.128.124 0 .062-.064.124-.064.248 0 .062 0 0 .064 0l-.064.186c-.064.062-.128.062-.064 0-.32.496-1.662 2.853-1.917 3.412.064-.062.128-.249.255-.249-.064.187-.127.187-.127.31-.128 0-.192.31-.32.373v.062l-.064.062c-.256.62-.064.124-.384.682-.127.31-.191.496-.255.682 0 0 .064-.062.064 0-.064 0-.064.248-.128.248-.064.062-.192.373-.064.31-.064 0-.192.249-.128.125-.064.062-.064.124-.128.186l.064-.124c-.128.248-.255.372-.255.62l.063-.062c-.063.186-.127.31-.255.31l.064-.186c-.128.248-.192.434-.32.682l.064-.062c-.064.31-.767 1.799-.83 2.11l.127-.125-.064.248s-.128-.186-.064-.186c-.256.496-1.47 3.04-1.726 3.473-.127.187-.064 0-.127 0-.064.249 0 .125-.064.31-.064.063-.064 0 0-.061-.064.062-.064.124-.064.186.064-.124.128 0 .191-.062l-.127.248H1.79c0 .062.064.186-.128.434-.192.372-.384.806-.64 1.24 0 0 0-.124.065-.186 0 .062-.064.124-.128.186.064-.062-.064.186 0 .124-.064.31-.32.683-.384.993.064.062 1.215 1.24 1.279 1.24-.064.062-.064.186-.128.186.064 0 .128-.186.128-.248l-.064-.062c.064-.186.064 0 .128-.248.063 0 0 .186-.064.372.064-.124.191-.248.127-.31.064-.124.064.062.128-.124.064-.124.064-.31.128-.372.192-.31.192-.496.32-.744v.062c.064-.062.128-.31.255-.496-.064.062-.064.062-.064-.062.128-.187.192-.373.256-.497v-.186c.32-.744 1.726-3.597 2.045-4.28v.063c.512-1.117 1.662-3.35 2.238-4.466.127-.124.255-.372.383-.559-.064.062-.064.062-.064-.062.32-.558 0-.062.256-.62.32-.682 1.662-3.101 2.045-3.597.128-.31.384-.683.512-.993v.062c.127-.31 1.214-2.109 1.406-2.48l-.064.061c.128-.31.192-.248.383-.496-.064 0 .064-.31.128-.372.064-.186.256-.558.384-.806v.062c.064-.248.383-.62.447-.745.256-.31.64-.806.895-1.302l.32-.248v-.062s-.192-.31-.512-.558c-.32-.249-.703-.497-1.022-.249V.93l-.064.124c-.128.124-.128.249-.128.187l.128-.187c-.128.124-.064 0-.064-.062-.064.062-.064.124-.128.186 0 .063 0 0 .064 0-.064.063-.064.249-.192.31-.128.125-.064 0-.192.125-.639.93-1.278 1.798-1.853 2.79v-.061c-.192.31-.32.558-.448.806-.064.062-.064.062-.128.062l-.383.744c-.128.187-.192.373-.32.497.064-.186 0-.124 0-.124z" transform="translate(31 35) translate(17.258 11.785) translate(6.392)"/>
                </g>
                <g>
                    <path d="M8.948 6.265c-.063.062-.127.124-.127.248.064-.062.127-.186.127-.248zM10.994 6.637v-.124.124z" transform="translate(31 35) translate(17.258 11.785) translate(0 2.481)"/>
                    <path d="M4.538 8.125l-.064.062c-.255-.062-.064-.124-.255-.186-.128.062-.32-.186-.448-.186 0 0-.064-.062-.064-.124-.064 0-.128-.062-.192-.062v.062c-.063 0-.063-.062-.127-.062-.064-.062 0-.062.064-.062-.192-.124-.576-.558-.767-1.116-.256-.559-.256-1.179-.256-1.365-.064.062 0 .186-.064.248-.064-.124 0-.186 0-.248.128-.062.064-.248.192-.31l-.064-.062.064-.062c.064-.496 0-.124.128-.558.063-.248.063-.372.191-.497 0 0-.064.062-.064 0 .064 0 .064-.186.128-.186 0-.062.192-.248.064-.186.064 0 .192-.186.128-.062.064-.062.128-.062.128-.124l-.064.062c.128-.186.256-.248.32-.372l-.064.062c.127-.124.191-.186.255-.124l-.128.124c.192-.124.32-.186.448-.31l-.064.062c.064-.124.447-.31.767-.434.383-.124.767-.186.895-.248l-.128-.062c.064 0 .128-.062.192-.062 0 0-.128.186-.128.124.192 0 .895 0 1.534.31.639.248 1.15.744 1.214.868.064.124-.064.062-.064.062.128.124.128 0 .192.186 0 .062-.064 0-.064 0 .064.062.064.124.128.124-.064-.062.064-.062.064-.124.064.062.064.124.128.186h-.064c0 .062.192.062.256.249.191.31.32.682.32 1.054 0 0-.065-.062-.065-.124v.186c0-.062.064.124.064.062.128.248.064.62.064.806.064 0 .447.186.831.435.383.186.703.496.767.496 0 .124-.064.186-.064.248.064 0 .128-.248.128-.31l-.064-.062c.064-.248.064-.062.064-.31.064 0 0 .248 0 .434.064-.186.128-.372.064-.434.064-.187.064 0 .128-.187V5.52c.064-.434-.064-.62-.128-.992v.062c0-.124-.064-.372-.128-.62 0 .062 0 .124-.064 0-.064-.248-.128-.435-.192-.62l-.128-.187c-.127-.248-.32-.62-.639-.992-.32-.372-.767-.806-1.342-1.117C7.478.372 6.2.248 5.689.248h.064c-.767 0-1.918.186-2.94.744C1.79 1.551 1.086 2.543.83 3.225c-.128.186-.256.497-.32.745.064-.124.064-.062.064 0-.191.682 0 .062-.128.806C.384 5.21.32 6.265.703 7.195c.32.992 1.023 1.737 1.278 2.047.32.248.767.558 1.151.744h-.064c.192.062.831.434 1.598.558.703.124 1.47.124 1.726.062h-.064c.447-.124.383 0 .703-.062-.064-.062.256-.186.383-.248.192-.062.64-.372.895-.558V9.8c.256-.186.64-.496.831-.682.384-.31.895-.869 1.087-1.489.128-.124.192-.248.255-.31v-.062s-.32-.248-.639-.434c-.383-.186-.83-.248-1.086 0h-.064c0 .062 0 .062-.064.124-.064.124-.064.186-.064.186l.064-.186c-.064.124-.064 0-.064-.062 0 .062-.064.124-.064.124h.064c0 .062 0 .186-.064.248-.064.124-.064 0-.128.124-.447.682-1.214 1.116-1.981 1.365-.256.062-.448.124-.703.124-.064 0-.064-.062-.128-.062 0 0-.32.062-.64 0-.127 0-.319-.062-.447-.124.128-.497.064-.559.064-.559z" transform="translate(31 35) translate(17.258 11.785) translate(0 2.481)"/>
                </g>
                <g>
                    <path d="M3.515 8.311c0-.062-.127-.124-.191-.186.064.124.128.186.191.186zM2.685 10.11c.063 0 .063.062.127.062 0 0-.064 0-.127-.062z" transform="translate(31 35) translate(17.258 11.785) translate(16.619 9.304)"/>
                    <path d="M2.685 3.722c.063-.249.063-.063.191-.249-.064-.124.256-.248.256-.372 0 0 .064-.062.128 0 0-.062.064-.062.128-.124h-.064l.128-.124c.063 0 .063 0 .063.062.192-.124.704-.372 1.343-.496.639-.062 1.214 0 1.406.062-.064-.062-.192-.062-.192-.124.128 0 .192.062.256 0 0 .124.256.124.32.248l.063-.062.064.062c.512.186.128 0 .512.248.255.124.383.186.447.31 0 0-.064-.062 0-.062 0 .062.192.124.128.186.064.062.192.248.192.124 0 .062.127.186 0 .124.064.062.064.124.127.124l-.063-.062c.127.187.127.31.255.435V3.97c.064.124.128.248.064.31l-.064-.124c.064.186.128.31.256.496V4.59c.064.124.192.434.256.868.063.372 0 .745 0 .869l.063-.124v.186l-.127-.124c-.064.186-.192.868-.64 1.364-.383.558-1.022.868-1.214.93-.128.063-.064-.062-.064-.062-.192.125-.064.062-.192.125-.064 0 0-.063 0-.063-.064.063-.127.063-.127.063.063 0 .063.062.127.062-.064 0-.127.062-.191.062v-.062c-.064 0-.064.124-.32.186-.384.062-.767.124-1.15.062 0 0 .063-.062.191-.062H5.05c.064.062-.127 0-.063.062-.256.062-.64-.124-.831-.124 0 .062-.256.372-.576.682-.32.31-.639.558-.703.62-.128-.062-.191-.124-.191-.124 0 .062.191.124.32.186l.063-.062c.256.124.064.062.256.186 0 .062-.256 0-.448-.124.192.124.32.186.448.186.128.062-.064.062.128.124.127.062.383.062.51.124.384.124.64.062 1.024.124h-.064c.127.062.383 0 .639.062-.064 0-.128-.062 0-.062.32 0 .511-.062.703-.062l.192-.062c.255-.062.639-.186 1.15-.372.448-.248 1.023-.558 1.47-.992.895-.807 1.343-1.985 1.47-2.481v.062c.192-.682.32-1.861-.064-2.915-.32-1.055-1.15-1.985-1.725-2.42-.128-.185-.448-.372-.64-.496.128.062.064.062-.063.062-.703-.31-.064 0-.767-.31C6.903.62 5.817.31 4.794.434c-1.023.062-1.982.558-2.301.744-.32.249-.767.559-.959.869v-.062c-.128.186-.64.682-.959 1.364-.32.62-.447 1.365-.447 1.613V4.9c0 .434-.064.372-.064.744.064-.062.128.31.192.434 0 .187.191.683.32.993H.51c.128.248.384.744.448.93.255.434.639 1.055 1.214 1.365.064.124.192.248.256.31h.064s.32-.186.575-.496c.256-.31.447-.745.256-.993h.064c-.064 0-.064-.062-.128-.062-.064-.124-.192-.124-.128-.124l.128.124c-.128-.124 0-.062.064-.062l-.128-.124v.062c-.064-.062-.192-.062-.256-.124-.064-.124.064-.062-.064-.186-.575-.62-.83-1.364-.895-2.17v-.683c0-.062.064-.062.064-.062s0-.31.128-.558c.064-.124.128-.31.192-.372.256-.062.32-.124.32-.124z" transform="translate(31 35) translate(17.258 11.785) translate(16.619 9.304)"/>
                </g>
            </g>
        </g>
        <g>
            <path fill="#741FA2" d="M31.938.886c.187.063-16.75 37.2-16.75 37.2l-4.813.57c-5.438-7.403-3.5-17.778-1.125-25.37.438-1.392 1.313-2.974 2.25-4.429C15.188 3.1 21.563-.443 28.25.063c1.563.127 2.875.443 3.688.823z" transform="translate(0 22)"/>
            <path fill="#00CDAD" d="M36.688 92.81l17.75-38.149S22.312 49.284 13.062 32.33c-7.5-18.031 2-27.774 2-27.774S-4.311 22.27 1.126 58.773C5.375 87.306 36.688 92.81 36.688 92.81z" transform="translate(0 22)"/>
            <g>
                <path fill="#5DE5B4" d="M19.938 27.837c11.937 11.64 15.25 19.739 11.312 26.761-3.938 7.086-12.375 7.022-19.438 1.835C22.376 66.87 36.689 69.402 36.689 69.402l17.75-38.149S22.312 25.876 13.062 8.92c-1.25-3.1-2.062-5.883-2.5-8.477.063 0-4 14.361 9.376 27.394z" transform="translate(0 22) translate(0 23.408)"/>
                <path fill="#863BAE" d="M8.063 45.488c1.187.063 2.124-.19 2.687-.38l-.063.063c.813-.253 1.75-.695 2.688-1.581.875-.823 1.563-2.088 1.875-3.353.313-1.266.25-2.53.125-3.606s-.375-2.088-.625-2.847c-.063-.506-.313-1.14-.438-1.582.063.253 0 .19-.062 0-.563-1.455-.063-.063-.688-1.518-.374-.823-1.312-2.72-2.5-4.492-1.124-1.772-2.5-3.416-3.062-3.986-.625-.57-1.375-1.328-2.125-1.835l.063.064c-.188-.127-.563-.443-1.125-.76-.563-.38-1.25-.695-2.125-.948-.75-.19-1.626-.19-2.376.126C.25 19.802.25 20.751.189 21.7c.187-.316.374-.57.562-.76.125-.062.125-.062.188-.062 0 0 .375-.317 1.062-.19.75.126 1.5.57 1.563.632l.062-.063c.563.38.125.19.688.506.25.064.875.696 1.062.76 0 0 .25.253.188.253.125 0 .25.19.437.38.063.062 0-.064-.063-.127l.313.38c.125.126.125.189 0 .062.438.443 1.625 1.835 2.688 3.353 1.062 1.519 1.874 3.227 2.187 3.86 0-.19-.25-.57-.25-.696.188.316.25.506.313.632-.063.19.312.76.312 1.013l.125.063.063.19c.624 1.455.187.316.624 1.645.25.759.438 1.138.5 1.581 0-.063 0-.253.063-.063-.063.063.125.506.125.633.063.19.125.822.188.632 0 .127.062.696-.063.38.063.19.063.38.063.506v-.253c0 .316.062.57.062.822v.633-.253c0 .38 0 .696-.125.822v-.38c-.063.633-.125 1.013-.188 1.456 0-.063.063-.127.063-.19-.063.316-.313 1.265-.938 2.025-.624.759-1.5 1.202-1.75 1.328l.25-.063c-.124.063-.312.19-.5.253.063 0 .188-.253.25-.253-.25.126-.812.316-1.5.38-.687.063-1.5 0-2.312-.317-1.625-.57-2.938-1.961-3.25-2.404-.25-.38 0-.126 0-.126-.375-.38-.188-.127-.5-.507-.063-.126.063 0 .125.064-.125-.127-.25-.317-.25-.317.125.19 0 .19.063.253-.126-.126-.25-.316-.376-.506h.063c-.063-.126-.313-.19-.625-.696l-.063-.063c.375 1.582.875 3.037 1.375 4.429.376.316.75.632 1.188.885 1.25.76 2.625 1.202 3.813 1.266z" opacity=".3" transform="translate(0 22) translate(0 23.408)"/>
            </g>
        </g>
        <g fill="#B267D9">
            <g>
                <path d="M1.594 5.375c.128-.13.383-.453.638-.712-.255.194-.446.388-.638.712zM32.458 26.811l-.191-.194.191.194z" transform="translate(20) translate(9.565 7.771)"/>
                <path d="M15.368 7.901l.064.065c.191.777 0 .259.191.971.191.26.191 1.23.191 1.554v.324c.064.13 0 .389 0 .648v-.13.518c-.063.195-.063.26-.063 0 0 .324-.128 1.037-.383 1.879-.255.841-.638 1.813-1.211 2.655-.574.842-1.276 1.619-1.914 2.072-.637.453-1.275.583-1.594.648.128 0 .574-.13.702-.13-.32.13-.51.13-.638.195-.127-.065-.765.064-1.02-.13h-.128l-.191-.065c-.702-.194-.765-.324-.83-.324 0 0-.063 0-.127-.064-.063-.065-.19-.13-.382-.389s-.32-.518-.383-.712c-.064-.195-.064-.389-.064-.583 0 .065 0 .194-.063 0 0 0 .063-.518.127-.583.064-.194.319-.777.191-.583.064-.065.447-.583.256-.259.127-.194.255-.324.318-.453l-.19.194c.445-.583.764-.777 1.147-1.1-.064.064-.128.064-.255.129.319-.26.638-.454.829-.518-.128.064-.255.129-.383.259.574-.389 1.02-.519 1.594-.778l-.19.065c.382-.13 1.53-.518 2.805-.647 1.275-.065 2.487.13 2.87.13l-.32-.13c.192 0 .447.064.638.064-.063 0-.319.065-.382.065.701.13 2.806.648 4.591 1.878 1.85 1.166 3.316 2.785 3.762 3.238.32.389 0 .13 0 .13l.574.583c.064.13-.064 0-.127-.065.127.194.255.388.319.388-.192-.259-.064-.194-.128-.323l.446.583h-.063c.063.129.318.259.701.841.702.972 1.34 2.073 1.913 3.109 0 0-.191-.194-.319-.453.064.13.192.323.255.453-.127-.259.255.453.192.194.51.713.956 1.814 1.403 2.461.063 0 .51.26.956.389.446.194.957.324.957.259.127.194.255.324.318.388 0-.064-.318-.388-.446-.582h-.064c-.319-.454-.063-.13-.382-.583 0-.065.255.388.574.712-.255-.324-.447-.648-.51-.777-.192-.324.063 0-.192-.389-.191-.259-.382-.647-.574-.971-.382-.842-.701-1.23-1.084-2.008l.064.065c-.128-.259-.446-.777-.765-1.295.063.13.127.259-.064 0-.319-.583-.574-.907-.829-1.295l-.255-.324c-.638-.907-2.296-3.174-4.528-4.922-1.084-.907-2.295-1.62-3.443-2.072-1.084-.519-2.04-.778-2.615-.907h.064c-.829-.194-1.913-.389-3.188-.389-1.212 0-2.615.195-3.89.648l-.957.388c-.318.13-.637.324-.892.519-.574.388-1.084.906-1.467 1.424-.383.518-.701 1.166-.893 1.749-.127.648-.127 1.23 0 1.813.064.324.192.713.447 1.036.19.324.51.648.765.842-.255-.259-.192-.194.064 0 .382.324.637.389.765.454.127.064.127.064.191.064s.064.065 1.02.26c.255.064.638.064 1.148 0 .447-.065.957-.195 1.53-.39 1.02-.452 2.041-1.36 2.806-2.395 1.53-2.008 2.105-4.534 2.169-5.44.063-.972.127-2.267-.064-3.238v.064c-.064-.518-.383-2.266-1.276-3.82-.19-.39-.51-.778-.765-1.102-.319-.323-.574-.647-.829-.906l-.382-.389c-.128-.13-.255-.194-.383-.259-.255-.194-.383-.324-.574-.388l.128.064c-.893-.518-.766-.518-1.53-.906.063.13-.766-.26-1.085-.324C9.63.648 8.481.518 7.59.518h.063c-.382 0-.893 0-1.339.065-.51.065-.956.13-1.212.259-.573.13-1.275.388-2.04.777-.702.453-1.403.971-1.913 1.554-.255.26-.51.454-.702.713l.192.518s0 .518.127.777c.192.324.51.389 1.148-.324v.065l.255-.26.446-.452c-.127.129-.255.259-.382.453.319-.324.127-.065 0 .065.127-.13.255-.26.319-.389.063-.065-.064.065-.128.065.128-.194.383-.454.574-.583.319-.26.064 0 .446-.324 2.169-1.554 5.102-1.619 7.589-.518.064.065 0 0-.064 0 .765.324 1.34.712 1.977 1.166.127.13.191.194.191.259-.064-.065.765.583 1.276 1.554.255.453.51.907.637 1.295.192.324.32.648.32.648z" transform="translate(20) translate(9.565 7.771)"/>
            </g>
            <g>
                <path d="M7.014.324c-.127.065-.318.194-.446.388.128-.13.319-.259.446-.388zM14.284 32.834c-.064 0-.064-.064-.127-.13.063 0 .063.066.127.13z" transform="translate(20) translate(36.348)"/>
                <path d="M.701 9.909c-.063.647-.063.194-.127.777v.583c0 .259.064.518.127.582 0 0 .064.324.064.26.064.064.128.323.255.453.064.065 0-.065 0-.13.064.13.128.26.255.389.064.13.128.194 0 .065.192.259.574.647 1.084 1.036.51.324 1.084.647 1.658.906 1.148.583 2.36 1.101 2.806 1.296-.127-.065-.382-.195-.446-.26.255.065.319.195.446.195.064.13.51.259.638.389h.064l.127.064c1.02.389.255.065 1.148.454.51.194.829.259 1.084.388-.064 0-.127-.065 0-.065 0 .065.383.13.446.195.128.064.574.194.447.13.064.064.446.194.191.129.128.065.255.13.383.13l-.192-.065c.447.129.702.259.957.323l-.128-.064c.255.064.447.13.51.259l-.255-.065c.383.13.574.259.766.388l-.064-.064c.127.064.383.323.319.971-.064.583-.447 1.36-.447 1.62l.128-.195-.191.388c0-.064-.064-.259 0-.259-.128.389-.638 1.62-1.02 2.915-.383 1.295-.575 2.655-.575 3.108-.063.324-.063.065-.063.065 0 .389.063.194 0 .518 0 .065 0 0-.064-.065v.324c0-.194.064-.13.064-.194v.453h-.064c0 .13.064.26.127.713.064.712.255 1.554.51 2.266 0 0-.063-.13-.127-.324 0 .13.064.26.128.324-.064-.194.127.26.063.13.255.518.574 1.165.893 1.554h.83c.382 0 .7-.065.764-.13l.192.195c0-.065-.192-.194-.255-.26h-.064c-.192-.194 0-.064-.192-.258 0 0 .192.13.383.324-.127-.13-.255-.324-.319-.389-.127-.194.064 0-.064-.194-.127-.13-.255-.26-.318-.454-.192-.453-.383-.647-.51-1.036v.065c-.064-.13-.192-.453-.192-.712 0 .064 0 .129-.064 0-.063-.324-.127-.519-.127-.778l-.064-.194c0-.259-.064-.777-.064-1.425 0-.647.128-1.36.255-2.072.32-1.49.893-2.914 1.084-3.497v.065c.192-.454.383-.972.638-1.749.128-.389.191-.842.128-1.36-.064-.518-.383-1.101-.83-1.425-.446-.324-.828-.453-1.21-.583-.32-.13-.702-.259-1.021-.323-.638-.26-1.212-.454-1.658-.583-.255-.13-.638-.324-.957-.454.128.065.064.065-.063 0-.893-.388-.064 0-.957-.388-.51-.194-1.785-.777-2.997-1.36-.574-.324-1.212-.583-1.658-.842-.446-.26-.702-.518-.829-.648-.319-.259-.446-.777-.446-1.165v.064c-.064-.194.063-1.036.446-1.878.319-.842.765-1.748.956-2.007l-.063.064c.255-.518.255-.388.51-.777-.064 0 .127-.388.255-.583.127-.259.446-.777.701-1.165v.064c.192-.323.638-.906.83-1.1.382-.519 1.083-1.166 1.657-1.814.128-.13.32-.194.447-.324l.063-.064s0-.324-.127-.648c-.128-.26-.383-.518-.893-.194V.842l-.191.194c-.191.194-.255.324-.319.26l.255-.26c-.191.194-.064.065 0-.065-.064.065-.191.13-.255.195 0 .064.064 0 .064-.065l-.383.389c-.191.194-.064 0-.255.194-1.211 1.295-2.296 2.655-3.188 4.274v-.065c-.255.454-.51.907-.702 1.36-.063.13-.127.13-.127.195 0 0-.255.582-.51 1.23-.128.324-.255.712-.32.972-.127.064-.127.259-.19.259z" transform="translate(20) translate(36.348)"/>
            </g>
            <g>
                <path d="M1.148.648c-.064 0-.128.064-.191.13.127-.066.19-.066.19-.13z" transform="translate(20) translate(0 7.771)"/>
                <path d="M1.02 4.015c.192.13 0 .065.128.195.127 0 .191.194.255.194l.064.065c.063 0 .063.064.127.064V4.47c.064 0 .064 0 .128.064.064.065.064.065 0 .065.127.065.574.324 1.02.324.446 0 .893-.13 1.02-.194-.063 0-.127.064-.191 0 .064-.065.128 0 .128-.065.063.065.19-.065.255 0v-.065h.063c.255-.194.064-.065.32-.194l.254-.26s-.063 0 0 0c.064 0 .064-.129.128-.064 0-.065.127-.13.064-.13.063 0 .127-.129.127 0 0-.064.064-.064.064-.129l-.064.065c.064-.13.191-.195.191-.324l-.063.065c.063-.065.063-.13.127-.195v.065c.064-.13.128-.259.128-.388v.064c0-.064.064-.323.064-.583 0-.259-.064-.518-.128-.582v.064l-.064-.13s.128 0 .128.066c0-.13-.192-.518-.383-.842-.255-.324-.574-.518-.638-.648-.063-.065 0-.065 0-.065-.127-.064-.063 0-.127-.064h.064c-.064 0-.064-.065-.064-.065.064.065 0 .065 0 .13L4.017.388s-.127.064-.19 0c-.192-.065-.384-.13-.639-.195h0c.064.065-.063 0-.063 0-.128.065-.383 0-.51.065v.648c0 .323.127.583.127.647h-.064.064V1.49h.064c0 .064 0 .064-.064.064h.064s0 .065.064.065l.063-.065c.064.065.064-.064.128 0h.064V1.49c.063 0 .063 0 .127.064h.064c.064 0 .255.13.446.26.192.129.255.323.255.388.064.13.064.259 0 .453-.063.195-.19.324-.255.454-.063 0-.127.064-.127.064s.064 0 0 .065c-.128.065 0 0-.128.13-.064.064-.255.13-.446.13s-.319-.066-.383-.13c-.064 0-.127-.065-.191-.065s-.128-.13-.191-.26c-.32-.258-.383-.388-.383-.453-.064-.064 0-.064 0-.129-.064 0-.127-.065-.127-.065 0-.065-.064-.13-.064-.259-.064-.065 0-.194 0-.194.064-.13.127-.194.191-.324h.128s-.192-.194-.383-.453C1.467.97 1.212.712 1.02.777L.957.842C.893.907.893.972.893.972c0-.065.064-.065.064-.13-.064.065-.064 0 0-.065L.893.842c0 .065-.064.13-.064.194-.064.065-.064 0-.128.065-.318.518-.382 1.1-.318 1.619.063.194.063.324.127.453v.065s.064.194.191.389c.064.13.128.194.192.259.064.064.127.13.127.13z" transform="translate(20) translate(0 7.771)"/>
            </g>
            <g>
                <path d="M1.403 44.75c.064-.259.064-.777.127-1.23-.063.324-.127.712-.127 1.23zM44.064.842c-.128 0-.255.065-.383.065l.383-.065z" transform="translate(20) translate(87.362 22.667)"/>
                <path d="M11.988 23.962v-.065c.893-.647.32-.13 1.084-.777.256-.324 1.403-.907 1.658-1.166 0 0 .128-.064.192-.13.127-.064.191-.129.191-.064.128-.13.446-.259.701-.389.064-.064-.063 0-.19.065l.637-.388c.255-.13.319-.13.064 0 .382-.195 1.211-.648 2.232-.842.51-.13 1.084-.195 1.594-.065.51.065 1.02.324 1.466.648.83.712 1.212 2.007 1.212 3.108.064 1.101-.128 2.008-.255 2.461.127-.259.191-.842.255-1.036-.064.518-.128.777-.128.971-.127.195-.318 1.101-.573 1.36v.13l-.128.194c-.51.972-.638.972-.701 1.036l-.128.13c-.128.065-.255.259-.638.453-.382.194-.637.194-.892.13-.255-.065-.447-.13-.574-.324.063.065.191.194 0 .065 0 0-.128-.13-.192-.26-.127-.129-.19-.323-.19-.388-.128-.194-.384-1.1-.32-.777 0-.13-.127-.972-.064-.518-.063-.26-.063-.518-.063-.777v.388c-.064-.971-.064-1.554-.064-2.202V24.48c0-.259.064-.389.064-.518 0 .194-.064.388-.064.648 0-.519.064-.907.127-1.296.064-.388.128-.712.192-1.165l-.064.323c.064-.518.383-2.202.957-3.756.573-1.554 1.402-2.979 1.657-3.432l-.255.388c.128-.259.255-.518.447-.777-.064.065-.128.389-.192.518.256-.388.766-1.165 1.467-2.137.702-.906 1.658-2.007 2.678-2.914 1.02-.972 2.169-1.813 3.125-2.461.957-.648 1.786-1.101 2.168-1.295.638-.324.128 0 .128 0 .701-.389.319-.195.892-.518.192-.065 0 .064-.127.13.255-.13.51-.26.574-.26-.383.13-.255.065-.383.065l.83-.389V5.7c.19-.065.446-.259 1.275-.648 1.402-.582 2.933-1.1 4.4-1.554 0 0-.32.13-.638.194.191-.064.51-.13.701-.194-.382.065.638-.194.32-.13 1.083-.388 2.486-.647 3.443-.906.063-.065 1.849-1.554 1.849-1.62.319-.064.638-.129.701-.129-.063 0-.701.065-1.02.13l-.064.065c-.765.13-.191 0-.892.13-.064 0 .637-.195 1.211-.26-.51.065-1.084.13-1.275.26-.51.064.064-.066-.574.064-.446.13-.957.259-1.467.324-1.211.259-1.785.453-2.87.777l.128-.065c-.382.065-1.084.324-1.785.518.191-.065.382-.065-.064.065-.765.259-1.275.453-1.85.648l-.51.259c-1.339.518-4.527 1.943-7.397 4.144-1.403 1.101-2.742 2.332-3.698 3.433-1.02 1.166-1.722 2.202-2.105 2.785l.064-.13c-1.211 1.813-2.806 4.922-3.38 8.354-.318 1.684-.318 3.433-.19 5.052.127.842.318 1.619.7 2.331.383.713 1.085 1.295 1.85 1.425.446.13 1.02.13 1.53-.065.51-.194.957-.453 1.276-.712-.383.259-.255.194 0-.065.446-.453.637-.712.765-.842s.128-.13.128-.194c0-.065.063-.065.637-1.166.255-.647.638-1.748.765-3.173.064-.713.064-1.49-.063-2.267-.128-.777-.383-1.619-.893-2.331-.51-.713-1.275-1.296-2.04-1.555-.766-.323-1.595-.323-2.296-.259-1.403.195-2.36.648-2.87.907l-1.722.971c-.574.324-1.147.713-1.658 1.101l.064-.064c-.51.388-2.295 1.619-3.826 3.173-.829.777-1.53 1.619-2.104 2.267-.574.712-1.02 1.295-1.276 1.619l.128-.13c-.702 1.101-.638.907-1.275 1.814.127-.065-.447.906-.638 1.295-.191.259-.383.777-.638 1.295-.255.518-.51 1.101-.701 1.619v-.065c-.128.454-.447 1.036-.638 1.62-.191.582-.383 1.1-.51 1.424-.446 1.425-1.02 3.627-1.148 5.634-.064.389-.127.842-.191 1.296v.194s.255.518.51.712c.319.195.638.065.765-1.165v.064-.518c.064-.583.064-.842.064-.842 0 .26-.064.518-.064.777.064-.582 0-.194.064.065 0-.259.064-.453.064-.647 0-.13 0 .064-.064.194 0-.324.064-.777.127-1.166.064-.583.064-.065.192-.712.319-1.814.829-3.627 1.53-5.31.702-1.684 1.53-3.368 2.487-4.987.064-.065 0 0-.064.13.32-.454.574-.907.893-1.36.319-.454.638-.843.893-1.231l.319-.324c-.064 0 .191-.26.51-.648s.829-.971 1.339-1.424l.765-.778c.255-.194.51-.453.702-.647.574-.324.829-.583.892-.583z" transform="translate(20) translate(87.362 22.667)"/>
            </g>
            <g>
                <path d="M2.232 20.659V20.4v.259zM6.186.518s0 .065-.064.065l.064-.065z" transform="translate(20) translate(83.536 33.676)"/>
                <path d="M2.296 15.413c0-.259 0-.064.063-.323-.063-.13.064-.389 0-.454 0 0 0-.13.064-.065-.064-.064 0-.13 0-.194l-.064.065v-.13c0-.064.064-.064.064 0 .064-.388.51-2.396.702-2.784-.064.064-.064.194-.128.194 0-.13.064-.194.064-.194.064 0 .064-.26.191-.324v-.065l.064-.065c.127-.518 0-.13.191-.583.064-.259.064-.388.128-.518 0 0-.064.065-.064 0 .064 0 .064-.194.064-.194 0-.065.064-.259 0-.194.064 0 .127-.195.127-.065 0-.065.064-.13.064-.194l-.064.064c.064-.194.128-.323.192-.453l-.064.065c.064-.13.064-.26.127-.26l-.063.13c.063-.194.127-.323.19-.518v.065c.065-.259.447-1.425.511-1.619l-.064.065.064-.195.064.13c.127-.389 1.02-2.331 1.211-2.655.064-.13.064 0 .064 0 .064-.195 0-.065.064-.26v.065c0-.064.064-.129.064-.129-.064.065-.064 0-.128 0l.128-.194c0-.065 0-.13.064-.324.19-.324.318-.648.51-.907 0 0 0 .065-.064.13 0-.065.064-.13.064-.13-.064.065.063-.13 0-.065.063-.259.255-.518.318-.712-.063-.065-.765-.971-.892-1.036.064-.065.064-.13.064-.13s-.128.13-.128.195v.064c-.064.13-.064 0-.128.195-.063 0 0-.13.064-.26-.064.13-.127.195-.127.26-.064.064-.064-.065-.128.064-.064.065-.064.195-.127.324-.192.195-.128.389-.32.583-.063.065-.127.26-.19.389 0-.065.063-.065 0 0-.128.13-.128.259-.256.388v.13c-.318.518-1.339 2.785-1.594 3.367-.382.907-1.148 2.72-1.339 3.692-.064.13-.127.324-.191.518.064-.065.064-.065.064 0-.128.453 0 .065-.128.518-.191.518-.701 2.655-.765 3.173 0 .26-.064.583-.064.907-.064.259-.255 1.943-.191 2.267v-.065c0 .324 0 .259-.064.518.064 0 .064.194.064.324s.063.453.063.712c.064.194.064.583.064.713 0 .323 0 .841.128 1.295l-.064.324v.064s.255.065.574.065c.319 0 .638-.13.701-.388v-.13c0-.13-.063-.194 0-.194v.194c0-.13 0-.065.064 0v-.13.065c0-.064-.064-.13-.064-.259 0-.13.064 0 .064-.194-.064-.777-.064-1.62-.064-2.396v-.713c0-.064.064-.064.064-.064 0-.26.064-1.49.128-1.555z" transform="translate(20) translate(83.536 33.676)"/>
            </g>
            <g>
                <path d="M2.423 1.295c-.064-.065-.127-.065-.255-.065.064.065.191.065.255.065z" transform="translate(20) translate(91.826 24.61)"/>
                <path d="M.638 4.145c.127.13 0 .065.063.194.128 0 .128.26.192.26 0 0 .064.064 0 .064.064 0 .064.065.064.065v-.065l.063.065v.064c.064.13.383.454.83.648.382.194.892.194 1.02.194-.064 0-.128 0-.192-.064h.128c.064.064.191 0 .255.064V5.57h.064c.318-.13.063 0 .382-.13.192-.065.255-.13.32-.194 0 0-.065 0 0 0 0 .064.127-.065.127-.065.063 0 .19-.065.063-.13.064 0 .128-.064.064 0 .064 0 .064-.064.064-.064H4.08c.128-.065.191-.13.255-.195h-.064c.064-.064.128-.13.192-.064l-.064.064.255-.259v.065c.064-.065.191-.259.255-.518.064-.194.128-.453.128-.518l-.064.065v-.13l.127.065c.064-.13.128-.518.064-.907-.064-.388-.191-.712-.255-.842 0-.064.064-.064.064-.064-.064-.065-.064 0-.128-.13h.064c0-.065 0-.065-.064-.065 0 .065-.063.065-.063.065l-.064-.13s-.128 0-.128-.129c-.063-.194-.255-.324-.382-.453h.063L4.21.842c0 .065-.064-.065-.064 0-.128-.065-.255-.194-.383-.26l-.446.454c-.191.26-.319.518-.383.518H2.87s0 .065.063.065v-.065c.064 0 0 0 .064.065h-.064s.064.065.064 0v.065h.064c.064.065.127 0 .127.13l.064.064s0-.065 0 0 .064.065.064.13h.064c.063.064.191.259.255.518.064.194.064.453.064.518 0 .13-.064.259-.192.453-.127.13-.319.26-.446.389h-.128v.064c-.127 0 0 0-.127.065-.064 0-.255.065-.447-.065-.127-.064-.255-.194-.318-.259-.064 0-.128-.13-.192-.194 0 0-.063-.194-.127-.324V2.85c0-.065.064-.065.064-.13-.064 0-.064-.065-.064-.13v-.194c0-.065.064-.13.064-.13.063-.064.127-.064.19-.064 0 0 0 .065.065.065 0 0 0-.26.063-.518.064-.26.128-.648-.127-.778h-.064c-.127 0-.127.065-.127 0h.127c-.127 0-.064 0 0-.064h-.127.063c-.063 0-.127.064-.191.064-.128.065 0-.064-.128 0-.637.26-1.02.842-1.147 1.425 0 .194-.064.324-.064.518 0 .065-.064.065-.064.065s0 .194.064.453c.255.518.319.713.319.713z" transform="translate(20) translate(91.826 24.61)"/>
            </g>
        </g>
    </g>
</svg>
