<svg xmlns="http://www.w3.org/2000/svg" width="80" height="15" viewBox="0 0 93 18">
    <path fill="#741FA2" fill-rule="evenodd" d="M11.84.619c3.495-.449 5.07.84 5.07 2.798 0 2.13-1.945 4.027-6.098 5.51.315 1.125.955 3.342 1.603 5.136.303.84.675 1.489 1.153 1.884.525.435 1.077.562 1.79.638.391.041.513.263.31.578-.176.273-.85.662-1.969.662-.941 0-1.736-.299-2.327-.897-.49-.495-.815-1.187-1.175-2.15-.622-1.669-1.205-3.74-1.522-4.925-.498 1.341-1 2.644-1.457 3.754C5.965 16.648 4.4 18 2.411 18 1.105 18 0 17.18 0 15.755c0-1.907 1.545-4.654 6.482-6.66C7.348 6.76 8.3 4.048 8.836 2.512l-.547.123c-3.233.729-4.112 2.246-4.112 3.433 0 .757.348 1.198.928 1.64.276.21.186.735-.746.735-1.368 0-2.549-.946-2.549-2.312 0-2.017 1.678-3.98 6.154-4.862 1.198-.236 2.33-.453 3.875-.651zm-6.027 9.97c-3.563 1.787-4.228 4.016-4.228 4.617 0 .55.303.724.693.666.86-.128 1.535-1.042 2.629-3.209.226-.449.544-1.187.905-2.075zM46.836.528c4.125 0 .5 7.984-5.043 10.59-.225.75-.36 1.404-.36 1.88 0 .385.093.609.431.665.323.054.778-.177.807.27.047.703-.767 1.338-1.742 1.338-.947 0-1.607-.735-1.693-1.969-.913 1.238-1.914 2.043-3.037 2.043-1.165 0-1.57-1.03-1.599-2.011-1.067 1.499-1.964 1.97-2.842 1.97-1.23 0-1.564-.95-1.609-1.893-.77 1.026-1.746 1.894-2.873 1.894-.962 0-1.61-.654-1.782-1.782-.859 1.13-1.782 1.782-2.847 1.782-.942 0-1.52-.744-1.52-1.759 0-.303.037-.624.1-.955-1.178 1.446-2.831 2.76-4.965 2.76-1.588 0-2.523-1.156-2.523-2.9 0-3.247 3.27-6.75 5.954-6.75.99 0 1.972.7 1.972 1.89 0 1.852-1.925 3.865-5.181 3.865-.11 0-.206-.003-.292-.008-.071.325-.112.639-.112.928 0 .751.377 1.341 1.265 1.341 2.281 0 4.347-3.255 5.7-6.36.04-.093.079-.172.116-.24.33-.819.718-1.735 1.066-2.536-2-.042-3.91-.074-5.307-.074-1.117 0-.067-1.027.86-1.069.973-.043 1.983-.086 3.002-.129l2.042-.083c.1-.222.184-.405.245-.534.445-.939.646-1.177 1.454-1.38.538-.135.716-.202 1.211-.243.323-.027.468.2.377.405-.151.34-.41.923-.729 1.652 4.26-.163 7.846-.283 8.332-.283.888 0 .79.503.565.785-.215.27-.396.435-.78.73-.458.352-.968.39-2.274.39h-.245c-1.44-.007-3.786-.06-6.256-.114-1.043 2.4-2.35 5.46-3.027 7.228-.423 1.104-.43 1.571.108 1.571.543 0 1.251-.9 1.799-1.752.56-2.424 2.566-5.87 5.225-5.87.875 0 1.28.533 1.466 1.06.276-.509.553-.804 1.145-.905.824-.142 1.463.068 1.61.122l.032.013s-1.386 2.67-2.335 5.268c-.406 1.11-.818 1.902-.101 1.902 1.02 0 2.146-2.2 3.943-6.075.045-.098.085-.164.12-.21.29-.555.564-.873 1.185-.98.942-.162 1.642.135 1.642.135s-1.386 2.671-2.335 5.268c-.406 1.11-.558 1.862.007 1.862.716 0 1.758-1.49 2.368-2.477C40.666 6.656 44.096.53 46.836.53zm6.187-.492c.377-.111.614.026.514.463-.188.818-1.402 8.722-1.402 8.722s4.092-6.407 5.042-7.99c.606-1.01 1.402-.948 2.82-1.157.394-.058.602 0 .484.392-.118.391-1.003 2.243-2.415 5.59-.713 1.69-1.523 3.882-2.089 5.502-.373 1.07-.404 1.63 0 1.65.369.019.947-.425 1.64-1.633.505-2.974 3.44-5.883 5.89-5.883.991 0 2.016.672 2.016 2.013 0 1.854-1.969 3.747-5.231 3.747-.099 0-.186-.002-.266-.007-.055.256-.085.501-.085.727 0 .92.364 1.361 1.052 1.361 1.01 0 1.577-.63 1.968-.63.216 0 .35.15.35.434 0 .785-1.334 2.015-3.127 2.015-1.378 0-2.19-.674-2.498-1.768-1.03 1.308-1.994 1.738-2.84 1.738-.816 0-1.565-.648-1.565-1.73 0-.94.288-1.69.614-2.716.477-1.396 1.5-3.888 2.368-5.976-2.135 3.705-4.504 7.79-5.612 9.79-.421.763-1.464.745-1.393-.038.12-1.322.968-6.381 1.676-10.168-.852 2.433-2 5.676-2.776 7.553-.939 2.266-1.915 3.242-3.29 3.242-.782 0-1.638-.467-1.982-1.259-.164-.378-.13-.681.465-.73 2.204-.183 3.135-1.646 4.308-4.144 1.106-2.356 2.671-7.021 2.865-7.469.37-.859.49-1.042 1.024-1.218.614-.204 1.016-.288 1.475-.423zM78.75.529c1.337 0 1.804 1.405 1.459 1.685-.225.182-.961.229-1.916.908-.793.565-1.718 1.998-2.328 3.516-.97 2.421-1.8 4.592-2.666 7.175-.276.824-.622.975-1.651 1.412-.502.214-.758.213-.74-.423.023-.838.163-5.436.304-9.046 0-.01.012-.03.002-.031-.007-.002-.004.013-.007.02-.52 1.675-1.222 3.838-2.056 6.074-.86 2.303-1.699 3.449-3.296 3.449-.893 0-1.624-.48-1.814-.92-.16-.373-.201-.692.38-.838 2.003-.506 2.734-1.518 4.02-4.228 1.203-2.538 2.157-5.42 2.663-7.127-.255-.002-.575-.004-1.101-.004-4.06 0-3.81 2.196-2.592 2.796.302.148.285.743-.338.743-3.357 0-3.763-4.996 1.665-4.996l2.618.001h1.076c.266-.008.533-.02.82-.02.08 0 .223.01.284.052.135.072.155.228.142.528l-.003.053c-.042.783-.42 5.74-.645 8.898-.002.022.003.04.012.014.47-1.455 1.079-3.28 1.624-4.754C75.523 3.152 76.616.53 78.75.53zm1.905 5.295c1.097 0 1.777.9 1.777 2.414 0 2.245-1.98 7.115-5.43 7.115-1.568 0-2.496-.935-2.496-2.45 0-2.128 2.025-7.08 6.149-7.08zm8.571-4.765c.326 0 .386.184.264.49-.164.415-.413 1.024-.72 1.775 1.899-.066 3.153-.1 3.507-.1.893 0 .794.506.568.79-.216.273-.398.44-.785.737-.46.354-.973.393-2.286.393-.536 0-1.12-.008-1.739-.022-.74 1.82-1.636 4.051-2.496 6.31-.254.667-.473 1.154-.473 1.625 0 .313.142.593.548.593.588 0 .86-.01.953.286.163.512-.466 1.417-1.988 1.417-1.218 0-1.908-.874-1.908-1.897 0-1.37.921-3.367 1.563-5.032.512-1.329.932-2.454 1.278-3.371-2.216-.07-4.637-.152-6.873-.152-1.123 0 .177-1.172 1.11-1.214 2.378-.106 4.545-.195 6.39-.266.128-.321.239-.585.334-.786.447-.947.544-1.093 1.353-1.31.609-.164 1.11-.266 1.4-.266zM30.37 7.412c-1.413 0-3.923 5.823-2.439 5.823 1.137 0 2.089-2.336 3.245-5.152-.074-.298-.261-.671-.806-.671zm49.43 0c-1.51 0-3.732 5.823-2.051 5.823 1.773 0 3.447-5.823 2.05-5.823zm-16.786 0c-.63 0-1.637 1.275-2.247 2.647 2.455-.077 3.187-2.647 2.247-2.647zm-44.426 0c-.632 0-1.613 1.26-2.207 2.647h.029c2.554 0 3.136-2.647 2.178-2.647zm28.317-5.294c-.722 0-2.787 3.634-4.104 6.882 3.054-2.449 4.709-6.882 4.104-6.882zM14.267 3.886c0-1.37-.926-1.935-2.731-1.726-.436 1.281-1.194 3.483-2.025 5.781.378-.14.798-.298 1.246-.471 2.385-.923 3.51-2.246 3.51-3.584zm24.88-1.239c.71 0 1.146.593.975 1.324-.17.73-.884 1.323-1.593 1.323-.71 0-1.146-.592-.975-1.323.171-.731.884-1.324 1.593-1.324z"/>
</svg>
